<svg width="16" height="16" viewBox="0 0 16 16" fill="none" xmlns="http://www.w3.org/2000/svg">
<path fill-rule="evenodd" clip-rule="evenodd" d="M1 8C1 6.14348 1.7375 4.36301 3.05025 3.05025C4.36301 1.7375 6.14348 1 8 1C9.85652 1 11.637 1.7375 12.9497 3.05025C14.2625 4.36301 15 6.14348 15 8C15 9.85652 14.2625 11.637 12.9497 12.9497C11.637 14.2625 9.85652 15 8 15C6.14348 15 4.36301 14.2625 3.05025 12.9497C1.7375 11.637 1 9.85652 1 8ZM0 8C0 5.87827 0.842854 3.84344 2.34315 2.34315C3.84344 0.842854 5.87827 0 8 0C10.1217 0 12.1566 0.842854 13.6569 2.34315C15.1571 3.84344 16 5.87827 16 8C16 10.1217 15.1571 12.1566 13.6569 13.6569C12.1566 15.1571 10.1217 16 8 16C5.87827 16 3.84344 15.1571 2.34315 13.6569C0.842854 12.1566 0 10.1217 0 8Z" fill="#11547E"/>
<path fill-rule="evenodd" clip-rule="evenodd" d="M4.646 8.354C4.69245 8.40056 4.74762 8.43751 4.80837 8.46271C4.86911 8.48792 4.93423 8.50089 5 8.50089C5.06577 8.50089 5.13089 8.48792 5.19163 8.46271C5.25238 8.43751 5.30755 8.40056 5.354 8.354L8 5.707L10.646 8.354C10.6925 8.40049 10.7477 8.43736 10.8084 8.46252C10.8692 8.48768 10.9343 8.50063 11 8.50063C11.0657 8.50063 11.1308 8.48768 11.1916 8.46252C11.2523 8.43736 11.3075 8.40049 11.354 8.354C11.4005 8.30751 11.4374 8.25232 11.4625 8.19158C11.4877 8.13084 11.5006 8.06574 11.5006 8C11.5006 7.93426 11.4877 7.86916 11.4625 7.80842C11.4374 7.74768 11.4005 7.69249 11.354 7.646L8.354 4.646C8.30755 4.59944 8.25238 4.56249 8.19163 4.53729C8.13089 4.51208 8.06577 4.49911 8 4.49911C7.93423 4.49911 7.86911 4.51208 7.80837 4.53729C7.74762 4.56249 7.69245 4.59944 7.646 4.646L4.646 7.646C4.59944 7.69245 4.56249 7.74762 4.53729 7.80837C4.51208 7.86911 4.49911 7.93423 4.49911 8C4.49911 8.06577 4.51208 8.13089 4.53729 8.19163C4.56249 8.25238 4.59944 8.30755 4.646 8.354Z" fill="#11547E"/>
<path fill-rule="evenodd" clip-rule="evenodd" d="M8 11.5C8.13261 11.5 8.25979 11.4473 8.35355 11.3536C8.44732 11.2598 8.5 11.1326 8.5 11L8.5 6C8.5 5.86739 8.44732 5.74021 8.35355 5.64645C8.25979 5.55268 8.13261 5.5 8 5.5C7.86739 5.5 7.74021 5.55268 7.64645 5.64645C7.55268 5.74021 7.5 5.86739 7.5 6V11C7.5 11.1326 7.55268 11.2598 7.64645 11.3536C7.74021 11.4473 7.86739 11.5 8 11.5Z" fill="#11547E"/>
</svg>
