<svg width="24" height="18" viewBox="0 0 24 18" fill="none" xmlns="http://www.w3.org/2000/svg">
<path d="M21 0H3C1.34316 0 0 1.34316 0 3V5.01562C0 5.14505 0.104953 5.25 0.234375 5.25H20.979C21.3829 5.25 21.7304 5.56059 21.7492 5.96409C21.7692 6.39483 21.4263 6.75 21 6.75H0.234375C0.104953 6.75 0 6.85495 0 6.98438V15C0 16.6568 1.34316 18 3 18H21C22.6568 18 24 16.6568 24 15V3C24 1.34316 22.6568 0 21 0ZM17.4055 14.2455C16.21 14.3148 15.1726 13.579 14.7861 12.5307C14.7518 12.4377 14.6647 12.375 14.5656 12.375H8.85938C8.72995 12.375 8.625 12.48 8.625 12.6094V13.479C8.625 13.8829 8.31441 14.2304 7.91086 14.2492C7.48017 14.2692 7.125 13.9263 7.125 13.5V12.6094C7.125 12.48 7.02005 12.375 6.89062 12.375H5.85938C5.72995 12.375 5.625 12.48 5.625 12.6094V13.479C5.625 13.8829 5.31441 14.2304 4.91086 14.2492C4.48017 14.2692 4.125 13.9263 4.125 13.5V11.625C4.125 11.2108 4.46077 10.875 4.875 10.875H14.5657C14.6646 10.875 14.7518 10.8124 14.786 10.7196C15.1555 9.71681 16.1206 9 17.25 9C18.7395 9 19.9432 10.2469 19.872 11.7518C19.809 13.0837 18.7366 14.1683 17.4055 14.2455Z" fill="#178DE0"/>
<path d="M17.25 12.75C17.8713 12.75 18.375 12.2463 18.375 11.625C18.375 11.0037 17.8713 10.5 17.25 10.5C16.6287 10.5 16.125 11.0037 16.125 11.625C16.125 12.2463 16.6287 12.75 17.25 12.75Z" fill="#178DE0"/>
</svg>
