<svg width="4" height="7" viewBox="0 0 4 7" fill="none" xmlns="http://www.w3.org/2000/svg">
<path fill-rule="evenodd" clip-rule="evenodd" d="M0.0790763 0.0790874C0.0540102 0.104094 0.0341229 0.1338 0.0205537 0.166505C0.00698442 0.19921 0 0.234271 0 0.26968C0 0.305089 0.00698442 0.340151 0.0205537 0.372856C0.0341229 0.405561 0.0540102 0.435267 0.0790763 0.460274L3.11899 3.50007L0.0790763 6.53987C0.0540507 6.5649 0.0341993 6.59461 0.0206556 6.62731C0.00711182 6.66002 0.000140924 6.69507 0.000140924 6.73046C0.000140924 6.76586 0.00711182 6.80091 0.0206556 6.83361C0.0341993 6.86631 0.0540507 6.89603 0.0790763 6.92105C0.104102 6.94608 0.133812 6.96594 0.166509 6.97948C0.199207 6.99303 0.234252 7 0.269643 7C0.305035 7 0.34008 6.99303 0.372777 6.97948C0.405475 6.96594 0.435184 6.94608 0.46021 6.92105L3.69015 3.69066C3.71522 3.66566 3.73511 3.63595 3.74868 3.60325C3.76225 3.57054 3.76923 3.53548 3.76923 3.50007C3.76923 3.46466 3.76225 3.4296 3.74868 3.3969C3.73511 3.36419 3.71522 3.33448 3.69015 3.30948L0.46021 0.0790874C0.435207 0.0540178 0.405505 0.0341279 0.372804 0.0205568C0.340104 0.00698564 0.305047 0 0.269643 0C0.234239 0 0.199183 0.00698564 0.166482 0.0205568C0.133781 0.0341279 0.104079 0.0540178 0.0790763 0.0790874Z" fill="#252525"/>
<path fill-rule="evenodd" clip-rule="evenodd" d="M0.0790763 0.0790874C0.0540102 0.104094 0.0341229 0.1338 0.0205537 0.166505C0.00698442 0.19921 0 0.234271 0 0.26968C0 0.305089 0.00698442 0.340151 0.0205537 0.372856C0.0341229 0.405561 0.0540102 0.435267 0.0790763 0.460274L3.11899 3.50007L0.0790763 6.53987C0.0540507 6.5649 0.0341993 6.59461 0.0206556 6.62731C0.00711182 6.66002 0.000140924 6.69507 0.000140924 6.73046C0.000140924 6.76586 0.00711182 6.80091 0.0206556 6.83361C0.0341993 6.86631 0.0540507 6.89603 0.0790763 6.92105C0.104102 6.94608 0.133812 6.96594 0.166509 6.97948C0.199207 6.99303 0.234252 7 0.269643 7C0.305035 7 0.34008 6.99303 0.372777 6.97948C0.405475 6.96594 0.435184 6.94608 0.46021 6.92105L3.69015 3.69066C3.71522 3.66566 3.73511 3.63595 3.74868 3.60325C3.76225 3.57054 3.76923 3.53548 3.76923 3.50007C3.76923 3.46466 3.76225 3.4296 3.74868 3.3969C3.73511 3.36419 3.71522 3.33448 3.69015 3.30948L0.46021 0.0790874C0.435207 0.0540178 0.405505 0.0341279 0.372804 0.0205568C0.340104 0.00698564 0.305047 0 0.269643 0C0.234239 0 0.199183 0.00698564 0.166482 0.0205568C0.133781 0.0341279 0.104079 0.0540178 0.0790763 0.0790874Z" fill="#252525"/>
<path fill-rule="evenodd" clip-rule="evenodd" d="M0.0790763 0.0790874C0.0540102 0.104094 0.0341229 0.1338 0.0205537 0.166505C0.00698442 0.19921 0 0.234271 0 0.26968C0 0.305089 0.00698442 0.340151 0.0205537 0.372856C0.0341229 0.405561 0.0540102 0.435267 0.0790763 0.460274L3.11899 3.50007L0.0790763 6.53987C0.0540507 6.5649 0.0341993 6.59461 0.0206556 6.62731C0.00711182 6.66002 0.000140924 6.69507 0.000140924 6.73046C0.000140924 6.76586 0.00711182 6.80091 0.0206556 6.83361C0.0341993 6.86631 0.0540507 6.89603 0.0790763 6.92105C0.104102 6.94608 0.133812 6.96594 0.166509 6.97948C0.199207 6.99303 0.234252 7 0.269643 7C0.305035 7 0.34008 6.99303 0.372777 6.97948C0.405475 6.96594 0.435184 6.94608 0.46021 6.92105L3.69015 3.69066C3.71522 3.66566 3.73511 3.63595 3.74868 3.60325C3.76225 3.57054 3.76923 3.53548 3.76923 3.50007C3.76923 3.46466 3.76225 3.4296 3.74868 3.3969C3.73511 3.36419 3.71522 3.33448 3.69015 3.30948L0.46021 0.0790874C0.435207 0.0540178 0.405505 0.0341279 0.372804 0.0205568C0.340104 0.00698564 0.305047 0 0.269643 0C0.234239 0 0.199183 0.00698564 0.166482 0.0205568C0.133781 0.0341279 0.104079 0.0540178 0.0790763 0.0790874Z" fill="#252525"/>
</svg>
