<svg width="11" height="11" viewBox="0 0 11 11" fill="none" xmlns="http://www.w3.org/2000/svg">
<path d="M10.56 0.99H8.25V0.11C8.25 0.0495 8.2005 0 8.14 0H7.37C7.3095 0 7.26 0.0495 7.26 0.11V0.99H3.74V0.11C3.74 0.0495 3.6905 0 3.63 0H2.86C2.7995 0 2.75 0.0495 2.75 0.11V0.99H0.44C0.196625 0.99 0 1.18663 0 1.43V10.56C0 10.8034 0.196625 11 0.44 11H10.56C10.8034 11 11 10.8034 11 10.56V1.43C11 1.18663 10.8034 0.99 10.56 0.99ZM10.01 10.01H0.99V4.785H10.01V10.01ZM0.99 3.85V1.98H2.75V2.64C2.75 2.7005 2.7995 2.75 2.86 2.75H3.63C3.6905 2.75 3.74 2.7005 3.74 2.64V1.98H7.26V2.64C7.26 2.7005 7.3095 2.75 7.37 2.75H8.14C8.2005 2.75 8.25 2.7005 8.25 2.64V1.98H10.01V3.85H0.99Z" fill="#525252"/>
</svg>
