<svg width="18" height="17" viewBox="0 0 18 17" fill="none" xmlns="http://www.w3.org/2000/svg">
<path d="M6.08154 16.7329C6.72471 16.7329 7.24609 16.2255 7.24609 15.5996C7.24609 14.9736 6.72471 14.4662 6.08154 14.4662C5.43838 14.4662 4.91699 14.9736 4.91699 15.5996C4.91699 16.2255 5.43838 16.7329 6.08154 16.7329Z" fill="#11547E"/>
<path d="M14.2334 16.7329C14.8766 16.7329 15.398 16.2255 15.398 15.5996C15.398 14.9736 14.8766 14.4662 14.2334 14.4662C13.5902 14.4662 13.0688 14.9736 13.0688 15.5996C13.0688 16.2255 13.5902 16.7329 14.2334 16.7329Z" fill="#11547E"/>
<path d="M16.5625 3.69964H3.64763L3.17017 1.31966C3.14294 1.18973 3.06977 1.07322 2.96338 0.990384C2.85698 0.907553 2.72411 0.863653 2.58789 0.866326H0.258789V1.99965H2.11042L4.33472 12.8796C4.36194 13.0095 4.43512 13.126 4.54151 13.2088C4.6479 13.2917 4.78077 13.3356 4.91699 13.3329H15.398V12.1996H5.39446L4.91699 9.93293H15.398C15.5326 9.93613 15.6641 9.89384 15.7703 9.81325C15.8765 9.73266 15.9506 9.61876 15.9802 9.49093L17.1448 4.39097C17.1643 4.30689 17.1638 4.21959 17.1434 4.1357C17.1231 4.05182 17.0833 3.97357 17.0271 3.90691C16.971 3.84024 16.9 3.78692 16.8194 3.75101C16.7389 3.71509 16.651 3.69752 16.5625 3.69964ZM14.9321 8.7996H4.69573L3.88054 4.83296H15.8347L14.9321 8.7996Z" fill="#11547E"/>
</svg>
