<svg width="18" height="17" viewBox="0 0 18 17" fill="none" xmlns="http://www.w3.org/2000/svg">
<path d="M13.9185 17C13.7433 16.9995 13.5686 16.9809 13.3975 16.9446C10.1398 16.2937 7.13858 14.7677 4.73927 12.542C2.39116 10.3115 0.762614 7.47155 0.0506809 4.3658C-0.0332649 3.97873 -0.0126613 3.57731 0.11051 3.20015C0.233681 2.823 0.455273 2.48281 0.753969 2.2123L2.83779 0.275166C2.94422 0.177951 3.07068 0.103505 3.20892 0.0566882C3.34716 0.00987117 3.49407 -0.00826493 3.64006 0.00346353C3.79143 0.0187156 3.9375 0.0658109 4.068 0.141437C4.19851 0.217064 4.31027 0.319385 4.39544 0.441206L7.00021 4.15951C7.09789 4.30378 7.14504 4.47453 7.13473 4.64662C7.12441 4.81872 7.05717 4.98307 6.9429 5.1155L5.63531 6.62495C6.15608 7.73815 6.89359 8.74427 7.80769 9.58852C8.71587 10.4634 9.78931 11.162 10.9699 11.6464L12.59 10.4036C12.7261 10.2998 12.8917 10.2384 13.0648 10.2276C13.2379 10.2168 13.4103 10.2571 13.559 10.3433L17.4922 12.7986C17.6272 12.8765 17.7422 12.9828 17.8286 13.1097C17.915 13.2365 17.9705 13.3806 17.9911 13.5311C18.0116 13.6817 17.9966 13.8347 17.9472 13.9789C17.8978 14.123 17.8153 14.2545 17.7058 14.3634L15.6741 16.3056C15.4433 16.5274 15.1694 16.703 14.8681 16.8221C14.5668 16.9413 14.2441 17.0017 13.9185 17ZM3.5567 0.999706L1.47289 2.93684C1.30485 3.08807 1.18047 3.27893 1.11196 3.49066C1.04346 3.70238 1.03319 3.92769 1.08217 4.14441C1.74416 7.05874 3.26586 9.72553 5.4634 11.8225C7.72131 13.9164 10.5456 15.3518 13.6111 15.9635C13.8432 16.0103 14.0836 16.0008 14.3109 15.9358C14.5382 15.8709 14.7453 15.7524 14.9135 15.5911L16.9452 13.649L13.1475 11.2791L11.4075 12.6175C11.3409 12.6684 11.2624 12.7028 11.1788 12.7177C11.0953 12.7327 11.0093 12.7276 10.9282 12.703C9.48344 12.1889 8.17416 11.3728 7.09398 10.3131C5.97672 9.30536 5.10947 8.06699 4.55693 6.69036C4.53356 6.60702 4.53278 6.51928 4.55468 6.43556C4.57658 6.35185 4.62041 6.27499 4.68196 6.21237L6.08854 4.58719L3.5567 0.999706Z" fill="#178DE0"/>
</svg>
