<svg width="16" height="20" viewBox="0 0 16 20" fill="none" xmlns="http://www.w3.org/2000/svg">
<path d="M7.99976 4.70187C7.41749 4.70187 6.8483 4.86231 6.36417 5.1629C5.88003 5.4635 5.5027 5.89074 5.27987 6.39061C5.05705 6.89048 4.99875 7.44052 5.11235 7.97118C5.22594 8.50184 5.50633 8.98928 5.91805 9.37186C6.32977 9.75445 6.85434 10.015 7.42542 10.1205C7.99649 10.2261 8.58843 10.1719 9.12637 9.96487C9.66431 9.75782 10.1241 9.40719 10.4476 8.95732C10.7711 8.50745 10.9437 7.97854 10.9437 7.43749C10.9428 6.71221 10.6324 6.01687 10.0805 5.50402C9.52857 4.99117 8.78028 4.70269 7.99976 4.70187ZM7.99976 8.8053C7.70863 8.8053 7.42403 8.72508 7.18196 8.57478C6.9399 8.42448 6.75123 8.21086 6.63982 7.96093C6.5284 7.71099 6.49925 7.43597 6.55605 7.17064C6.61285 6.90531 6.75304 6.66159 6.9589 6.4703C7.16476 6.27901 7.42705 6.14874 7.71259 6.09596C7.99812 6.04318 8.29409 6.07027 8.56306 6.1738C8.83203 6.27732 9.06193 6.45264 9.22367 6.67757C9.38542 6.90251 9.47175 7.16696 9.47175 7.43749C9.4713 7.80012 9.31607 8.14779 9.04011 8.40421C8.76416 8.66064 8.39001 8.80488 7.99976 8.8053Z" fill="#178DE0"/>
<path d="M13.6568 2.17675C12.258 0.877347 10.3909 0.105449 8.41573 0.0100327C6.44055 -0.0853834 4.49735 0.502446 2.96116 1.66007C1.42498 2.81769 0.404705 4.46305 0.0972661 6.27857C-0.210173 8.0941 0.217013 9.95109 1.29638 11.4912L6.85806 19.425C6.98183 19.6016 7.15106 19.7466 7.3504 19.847C7.54975 19.9474 7.77291 20 7.99966 20C8.22641 20 8.44957 19.9474 8.64891 19.847C8.84826 19.7466 9.01749 19.6016 9.14126 19.425L14.7031 11.4912C15.7046 10.0625 16.1473 8.35741 15.9568 6.6616C15.7662 4.9658 14.9542 3.38238 13.6568 2.17675ZM13.4698 10.7445L7.99968 18.5475L2.52954 10.7445C0.855148 8.35605 1.21427 5.15964 3.38343 3.14392C3.98964 2.5806 4.70932 2.13375 5.50138 1.82888C6.29344 1.52401 7.14236 1.3671 7.99968 1.3671C8.857 1.3671 9.70593 1.52401 10.498 1.82888C11.29 2.13375 12.0097 2.5806 12.6159 3.14392C14.7851 5.15964 15.1442 8.35605 13.4698 10.7445Z" fill="#178DE0"/>
</svg>
