<svg width="17" height="13" viewBox="0 0 17 13" fill="none" xmlns="http://www.w3.org/2000/svg">
<path d="M15.7857 11.5227V4.43182C15.5833 4.65341 15.3651 4.85653 15.1311 5.04119C13.4362 6.30919 12.0891 7.34943 11.0898 8.16193C10.7673 8.42661 10.5048 8.63281 10.3025 8.78054C10.1001 8.92827 9.82654 9.07753 9.48186 9.22834C9.13718 9.37914 8.81306 9.45455 8.50949 9.45455H8.49051C8.18694 9.45455 7.86282 9.37914 7.51814 9.22834C7.17346 9.07753 6.89993 8.92827 6.69754 8.78054C6.49516 8.63281 6.2327 8.42661 5.91016 8.16193C4.9109 7.34943 3.5638 6.30919 1.86886 5.04119C1.63486 4.85653 1.41667 4.65341 1.21429 4.43182V11.5227C1.21429 11.6027 1.24433 11.672 1.30441 11.7305C1.36449 11.7889 1.43564 11.8182 1.51786 11.8182H15.4821C15.5644 11.8182 15.6355 11.7889 15.6956 11.7305C15.7557 11.672 15.7857 11.6027 15.7857 11.5227ZM15.7857 1.81889V1.59268L15.781 1.47266L15.7525 1.35724L15.7003 1.27415L15.615 1.2049L15.4821 1.18182H1.51786C1.43564 1.18182 1.36449 1.21106 1.30441 1.26953C1.24433 1.32801 1.21429 1.39725 1.21429 1.47727C1.21429 2.51136 1.67913 3.38542 2.60882 4.09943C3.82943 5.03504 5.09747 6.01065 6.41295 7.02628C6.45089 7.05705 6.56157 7.14785 6.74498 7.29865C6.92839 7.44946 7.07385 7.56487 7.18136 7.64489C7.28888 7.72491 7.42959 7.82185 7.60352 7.93572C7.77744 8.0496 7.93713 8.13423 8.08259 8.18963C8.22805 8.24503 8.36403 8.27273 8.49051 8.27273H8.50949C8.63597 8.27273 8.77195 8.24503 8.91741 8.18963C9.06287 8.13423 9.22256 8.0496 9.39648 7.93572C9.57041 7.82185 9.71112 7.72491 9.81864 7.64489C9.92615 7.56487 10.0716 7.44946 10.255 7.29865C10.4384 7.14785 10.5491 7.05705 10.5871 7.02628C11.9025 6.01065 13.1706 5.03504 14.3912 4.09943C14.7327 3.83475 15.0505 3.47928 15.3446 3.03303C15.6387 2.58677 15.7857 2.18205 15.7857 1.81889ZM17 1.47727V11.5227C17 11.929 16.8514 12.2768 16.5541 12.5661C16.2569 12.8553 15.8996 13 15.4821 13H1.51786C1.10045 13 0.743118 12.8553 0.445871 12.5661C0.148624 12.2768 0 11.929 0 11.5227V1.47727C0 1.07102 0.148624 0.723248 0.445871 0.433949C0.743118 0.14465 1.10045 0 1.51786 0H15.4821C15.8996 0 16.2569 0.14465 16.5541 0.433949C16.8514 0.723248 17 1.07102 17 1.47727Z" fill="#178DE0"/>
</svg>
