<svg width="12" height="12" viewBox="0 0 12 12" fill="none" xmlns="http://www.w3.org/2000/svg">
<path d="M0 10.875C0 11.4961 0.575893 12 1.28571 12H10.7143C11.4241 12 12 11.4961 12 10.875V4.5H0V10.875ZM8.57143 6.28125C8.57143 6.12656 8.71607 6 8.89286 6H9.96429C10.1411 6 10.2857 6.12656 10.2857 6.28125V7.21875C10.2857 7.37344 10.1411 7.5 9.96429 7.5H8.89286C8.71607 7.5 8.57143 7.37344 8.57143 7.21875V6.28125ZM8.57143 9.28125C8.57143 9.12656 8.71607 9 8.89286 9H9.96429C10.1411 9 10.2857 9.12656 10.2857 9.28125V10.2188C10.2857 10.3734 10.1411 10.5 9.96429 10.5H8.89286C8.71607 10.5 8.57143 10.3734 8.57143 10.2188V9.28125ZM5.14286 6.28125C5.14286 6.12656 5.2875 6 5.46429 6H6.53571C6.7125 6 6.85714 6.12656 6.85714 6.28125V7.21875C6.85714 7.37344 6.7125 7.5 6.53571 7.5H5.46429C5.2875 7.5 5.14286 7.37344 5.14286 7.21875V6.28125ZM5.14286 9.28125C5.14286 9.12656 5.2875 9 5.46429 9H6.53571C6.7125 9 6.85714 9.12656 6.85714 9.28125V10.2188C6.85714 10.3734 6.7125 10.5 6.53571 10.5H5.46429C5.2875 10.5 5.14286 10.3734 5.14286 10.2188V9.28125ZM1.71429 6.28125C1.71429 6.12656 1.85893 6 2.03571 6H3.10714C3.28393 6 3.42857 6.12656 3.42857 6.28125V7.21875C3.42857 7.37344 3.28393 7.5 3.10714 7.5H2.03571C1.85893 7.5 1.71429 7.37344 1.71429 7.21875V6.28125ZM1.71429 9.28125C1.71429 9.12656 1.85893 9 2.03571 9H3.10714C3.28393 9 3.42857 9.12656 3.42857 9.28125V10.2188C3.42857 10.3734 3.28393 10.5 3.10714 10.5H2.03571C1.85893 10.5 1.71429 10.3734 1.71429 10.2188V9.28125ZM10.7143 1.5H9.42857V0.375C9.42857 0.16875 9.23571 0 9 0H8.14286C7.90714 0 7.71429 0.16875 7.71429 0.375V1.5H4.28571V0.375C4.28571 0.16875 4.09286 0 3.85714 0H3C2.76429 0 2.57143 0.16875 2.57143 0.375V1.5H1.28571C0.575893 1.5 0 2.00391 0 2.625V3.75H12V2.625C12 2.00391 11.4241 1.5 10.7143 1.5Z" fill="#BFC3CD"/>
</svg>
