<svg width="13" height="8" viewBox="0 0 13 8" fill="none" xmlns="http://www.w3.org/2000/svg">
<path fill-rule="evenodd" clip-rule="evenodd" d="M1.12428 1.12426C1.16358 1.08487 1.21026 1.05362 1.26165 1.0323C1.31304 1.01098 1.36814 1 1.42378 1C1.47943 1 1.53452 1.01098 1.58592 1.0323C1.63731 1.05362 1.68399 1.08487 1.72329 1.12426L6.50011 5.90127L11.2769 1.12426C11.3163 1.08494 11.363 1.05374 11.4143 1.03246C11.4657 1.01118 11.5208 1.00022 11.5764 1.00022C11.6321 1.00022 11.6871 1.01118 11.7385 1.03246C11.7899 1.05374 11.8366 1.08494 11.8759 1.12426C11.9153 1.16359 11.9465 1.21028 11.9678 1.26166C11.989 1.31304 12 1.36811 12 1.42372C12 1.47934 11.989 1.53441 11.9678 1.58579C11.9465 1.63717 11.9153 1.68386 11.8759 1.72319L6.79961 6.79881C6.76032 6.8382 6.71364 6.86945 6.66224 6.89078C6.61085 6.9121 6.55575 6.92308 6.50011 6.92308C6.44447 6.92308 6.38937 6.9121 6.33798 6.89078C6.28659 6.86945 6.2399 6.8382 6.20061 6.79881L1.12428 1.72319C1.08489 1.6839 1.05363 1.63722 1.0323 1.58584C1.01098 1.53445 1 1.47936 1 1.42372C1 1.36809 1.01098 1.313 1.0323 1.26161C1.05363 1.21023 1.08489 1.16355 1.12428 1.12426Z" fill="white"/>
<path fill-rule="evenodd" clip-rule="evenodd" d="M1.12428 1.12426C1.16358 1.08487 1.21026 1.05362 1.26165 1.0323C1.31304 1.01098 1.36814 1 1.42378 1C1.47943 1 1.53452 1.01098 1.58592 1.0323C1.63731 1.05362 1.68399 1.08487 1.72329 1.12426L6.50011 5.90127L11.2769 1.12426C11.3163 1.08494 11.363 1.05374 11.4143 1.03246C11.4657 1.01118 11.5208 1.00022 11.5764 1.00022C11.6321 1.00022 11.6871 1.01118 11.7385 1.03246C11.7899 1.05374 11.8366 1.08494 11.8759 1.12426C11.9153 1.16359 11.9465 1.21028 11.9678 1.26166C11.989 1.31304 12 1.36811 12 1.42372C12 1.47934 11.989 1.53441 11.9678 1.58579C11.9465 1.63717 11.9153 1.68386 11.8759 1.72319L6.79961 6.79881C6.76032 6.8382 6.71364 6.86945 6.66224 6.89078C6.61085 6.9121 6.55575 6.92308 6.50011 6.92308C6.44447 6.92308 6.38937 6.9121 6.33798 6.89078C6.28659 6.86945 6.2399 6.8382 6.20061 6.79881L1.12428 1.72319C1.08489 1.6839 1.05363 1.63722 1.0323 1.58584C1.01098 1.53445 1 1.47936 1 1.42372C1 1.36809 1.01098 1.313 1.0323 1.26161C1.05363 1.21023 1.08489 1.16355 1.12428 1.12426Z" fill="white"/>
<path fill-rule="evenodd" clip-rule="evenodd" d="M1.12428 1.12426C1.16358 1.08487 1.21026 1.05362 1.26165 1.0323C1.31304 1.01098 1.36814 1 1.42378 1C1.47943 1 1.53452 1.01098 1.58592 1.0323C1.63731 1.05362 1.68399 1.08487 1.72329 1.12426L6.50011 5.90127L11.2769 1.12426C11.3163 1.08494 11.363 1.05374 11.4143 1.03246C11.4657 1.01118 11.5208 1.00022 11.5764 1.00022C11.6321 1.00022 11.6871 1.01118 11.7385 1.03246C11.7899 1.05374 11.8366 1.08494 11.8759 1.12426C11.9153 1.16359 11.9465 1.21028 11.9678 1.26166C11.989 1.31304 12 1.36811 12 1.42372C12 1.47934 11.989 1.53441 11.9678 1.58579C11.9465 1.63717 11.9153 1.68386 11.8759 1.72319L6.79961 6.79881C6.76032 6.8382 6.71364 6.86945 6.66224 6.89078C6.61085 6.9121 6.55575 6.92308 6.50011 6.92308C6.44447 6.92308 6.38937 6.9121 6.33798 6.89078C6.28659 6.86945 6.2399 6.8382 6.20061 6.79881L1.12428 1.72319C1.08489 1.6839 1.05363 1.63722 1.0323 1.58584C1.01098 1.53445 1 1.47936 1 1.42372C1 1.36809 1.01098 1.313 1.0323 1.26161C1.05363 1.21023 1.08489 1.16355 1.12428 1.12426Z" fill="white"/>
<path d="M1.12428 1.12426C1.16358 1.08487 1.21026 1.05362 1.26165 1.0323C1.31304 1.01098 1.36814 1 1.42378 1C1.47943 1 1.53452 1.01098 1.58592 1.0323C1.63731 1.05362 1.68399 1.08487 1.72329 1.12426L6.50011 5.90127L11.2769 1.12426C11.3163 1.08494 11.363 1.05374 11.4143 1.03246C11.4657 1.01118 11.5208 1.00022 11.5764 1.00022C11.6321 1.00022 11.6871 1.01118 11.7385 1.03246C11.7899 1.05374 11.8366 1.08494 11.8759 1.12426C11.9153 1.16359 11.9465 1.21028 11.9678 1.26166C11.989 1.31304 12 1.36811 12 1.42372C12 1.47934 11.989 1.53441 11.9678 1.58579C11.9465 1.63717 11.9153 1.68386 11.8759 1.72319L6.79961 6.79881C6.76032 6.8382 6.71364 6.86945 6.66224 6.89078C6.61085 6.9121 6.55575 6.92308 6.50011 6.92308C6.44447 6.92308 6.38937 6.9121 6.33798 6.89078C6.28659 6.86945 6.2399 6.8382 6.20061 6.79881L1.12428 1.72319C1.08489 1.6839 1.05363 1.63722 1.0323 1.58584C1.01098 1.53445 1 1.47936 1 1.42372C1 1.36809 1.01098 1.313 1.0323 1.26161C1.05363 1.21023 1.08489 1.16355 1.12428 1.12426Z" stroke="white"/>
</svg>
