<svg width="11" height="11" viewBox="0 0 11 11" fill="none" xmlns="http://www.w3.org/2000/svg">
<path d="M7.4783 0.604227L3.61247 4.47007C1.99484 6.09178 0.769837 8.06221 0.0312854 10.2304C-0.00393512 10.333 -0.00954449 10.4434 0.0151004 10.549C0.0397453 10.6546 0.0936468 10.7511 0.170626 10.8275L0.172646 10.8295C0.226214 10.8835 0.289926 10.9263 0.360116 10.9556C0.430305 10.9848 0.505588 10.9999 0.581633 11C0.645622 11 0.70917 10.9894 0.769743 10.9688C2.93797 10.2302 4.90839 9.00521 6.53007 7.38755L10.3958 3.52173C10.7826 3.13485 11 2.61013 11 2.06299C11 1.51585 10.7827 0.991124 10.3958 0.604239C10.2042 0.412673 9.9768 0.260714 9.72651 0.157038C9.47622 0.0533627 9.20796 1.07827e-06 8.93704 0C8.38991 -2.17762e-06 7.86519 0.217345 7.4783 0.604227ZM6.00448 6.86207C4.54334 8.3194 2.78348 9.44246 0.846287 10.1538C1.5576 8.21659 2.68064 6.45671 4.13795 4.99555L6.44082 2.69268L8.30733 4.5592L6.00448 6.86207ZM9.87029 2.99625L8.83281 4.03372L6.9663 2.1672L8.00378 1.12971C8.12628 1.00686 8.27179 0.909361 8.43199 0.842796C8.5922 0.776232 8.76396 0.741906 8.93744 0.741781C9.11093 0.741655 9.28273 0.775734 9.44304 0.842067C9.60334 0.908399 9.74899 1.00569 9.87166 1.12836C9.99433 1.25103 10.0916 1.39669 10.1579 1.55699C10.2243 1.7173 10.2584 1.88911 10.2582 2.06259C10.2581 2.23608 10.2238 2.40784 10.1572 2.56804C10.0906 2.72825 9.99314 2.87376 9.87029 2.99625Z" fill="#3470A7"/>
</svg>
