<svg width="27" height="27" viewBox="0 0 27 27" fill="none" xmlns="http://www.w3.org/2000/svg">
<circle cx="13.5" cy="13.5" r="13.5" fill="#178DE0"/>
<path d="M13.5 11C12.0908 11 10.9 12.2213 10.9 13.6667C10.9 15.112 12.0908 16.3333 13.5 16.3333C14.9092 16.3333 16.1 15.112 16.1 13.6667C16.1 12.2213 14.9092 11 13.5 11ZM13.5 15C12.8077 15 12.2 14.3767 12.2 13.6667C12.2 12.9567 12.8077 12.3333 13.5 12.3333C14.1922 12.3333 14.8 12.9567 14.8 13.6667C14.8 14.3767 14.1922 15 13.5 15Z" fill="white"/>
<path d="M18.7 9H17.0191L15.2595 7.19533C15.1993 7.13331 15.1277 7.08411 15.0488 7.05059C14.9699 7.01707 14.8854 6.99987 14.8 7H12.2C12.1146 6.99987 12.0301 7.01707 11.9512 7.05059C11.8723 7.08411 11.8007 7.13331 11.7404 7.19533L9.9809 9H8.3C7.58305 9 7 9.598 7 10.3333V17.6667C7 18.402 7.58305 19 8.3 19H18.7C19.4169 19 20 18.402 20 17.6667V10.3333C20 9.598 19.4169 9 18.7 9ZM8.3 17.6667V10.3333H10.25C10.4229 10.3333 10.588 10.2633 10.7095 10.138L12.4691 8.33333H14.5309L16.2904 10.138C16.3507 10.2 16.4223 10.2492 16.5012 10.2827C16.5801 10.3163 16.6646 10.3335 16.75 10.3333H18.7L18.7013 17.6667H8.3Z" fill="white"/>
</svg>
