<svg width="14" height="9" viewBox="0 0 14 9" fill="none" xmlns="http://www.w3.org/2000/svg">
<path d="M13.7348 2.97188C13.8414 2.89922 14 2.96719 14 3.08203V7.875C14 8.49609 13.4121 9 12.6875 9H1.3125C0.587891 9 0 8.49609 0 7.875V3.08438C0 2.96719 0.155859 2.90156 0.265234 2.97422C0.877734 3.38203 1.68984 3.9 4.47891 5.63672C5.05586 5.99766 6.0293 6.75703 7 6.75234C7.97617 6.75938 8.96875 5.98359 9.52383 5.63672C12.3129 3.9 13.1223 3.37969 13.7348 2.97188ZM7 6C7.63438 6.00938 8.54766 5.31563 9.00703 5.02969C12.6355 2.77266 12.9117 2.57578 13.7484 2.01328C13.907 1.90781 14 1.74375 14 1.57031V1.125C14 0.503906 13.4121 0 12.6875 0H1.3125C0.587891 0 0 0.503906 0 1.125V1.57031C0 1.74375 0.0929687 1.90547 0.251563 2.01328C1.08828 2.57344 1.36445 2.77266 4.99297 5.02969C5.45234 5.31563 6.36562 6.00938 7 6Z" fill="#BFC3CD"/>
</svg>
