<svg width="28" height="28" viewBox="0 0 28 28" fill="none" xmlns="http://www.w3.org/2000/svg">
<path d="M27.5171 23.1724H0.482779C0.216179 23.1724 0 22.9563 0 22.6897V5.31042C0 5.04382 0.216179 4.82764 0.482779 4.82764H27.5172C27.7838 4.82764 27.9999 5.04382 27.9999 5.31042V22.6897C27.9999 22.9563 27.7837 23.1724 27.5171 23.1724Z" fill="#41479B"/>
<path d="M27.9999 5.31042C27.9999 5.04382 27.7837 4.82764 27.5171 4.82764H25.3572L16.4137 10.6872V4.82764H11.5861V10.6872L2.6426 4.82764H0.482779C0.216179 4.82764 0 5.04382 0 5.31042V6.55898L7.67312 11.5862H0V16.4138H7.67312L0 21.4411V22.6897C0 22.9563 0.216179 23.1724 0.482779 23.1724H2.64265L11.5862 17.3129V23.1724H16.4138V17.3129L25.3573 23.1724H27.5172C27.7838 23.1724 28 22.9563 28 22.6897V21.4411L20.3269 16.4138H27.9999V11.5863H20.3268L27.9999 6.55898V5.31042Z" fill="#F5F5F5"/>
<path d="M27.9999 12.5518H15.4482V4.82764H12.5517V12.5518H0V15.4483H12.5517V23.1724H15.4482V15.4483H27.9999V12.5518Z" fill="#FF4B55"/>
<path d="M9.78618 16.4136L0.0136719 22.7571C0.0478514 22.9903 0.240077 23.1722 0.482725 23.1722H1.14767L11.5596 16.4136H9.78618V16.4136Z" fill="#FF4B55"/>
<path d="M18.9433 16.4136H17.1699L27.5667 23.1622C27.809 23.1364 28.0002 22.9385 28.0002 22.6894V22.2925L18.9433 16.4136Z" fill="#FF4B55"/>
<path d="M0 5.84313L8.84725 11.5861H10.6207L0.281257 4.87451C0.116101 4.95124 0 5.11612 0 5.3102V5.84313Z" fill="#FF4B55"/>
<path d="M18.1875 11.5862L27.9835 5.22735C27.9428 5.00192 27.7546 4.82764 27.5175 4.82764H26.8258L16.4141 11.5862H18.1875Z" fill="#FF4B55"/>
</svg>
