<svg width="25" height="25" viewBox="0 0 25 25" fill="none" xmlns="http://www.w3.org/2000/svg">
<circle cx="12.5" cy="12.5" r="12.5" fill="#178DE0"/>
<path d="M14.9375 9.66803C14.722 9.66803 14.5153 9.75579 14.363 9.91201C14.2106 10.0682 14.125 10.2801 14.125 10.501C14.125 10.7219 14.2106 10.9338 14.363 11.09C14.5153 11.2463 14.722 11.334 14.9375 11.334C15.153 11.334 15.3597 11.2463 15.512 11.09C15.6644 10.9338 15.75 10.7219 15.75 10.501C15.75 10.2801 15.6644 10.0682 15.512 9.91201C15.3597 9.75579 15.153 9.66803 14.9375 9.66803ZM12.6381 9.66803C12.806 9.18028 13.1173 8.75793 13.5291 8.45918C13.9409 8.16043 14.433 8 14.9375 8C15.442 8 15.9341 8.16043 16.3459 8.45918C16.7577 8.75793 17.069 9.18028 17.2369 9.66803H18.1875C18.403 9.66803 18.6097 9.75579 18.762 9.91201C18.9144 10.0682 19 10.2801 19 10.501C19 10.7219 18.9144 10.9338 18.762 11.09C18.6097 11.2463 18.403 11.334 18.1875 11.334H17.2369C17.069 11.8218 16.7577 12.2441 16.3459 12.5429C15.9341 12.8416 15.442 13.002 14.9375 13.002C14.433 13.002 13.9409 12.8416 13.5291 12.5429C13.1173 12.2441 12.806 11.8218 12.6381 11.334H6.8125C6.59701 11.334 6.39035 11.2463 6.23798 11.09C6.0856 10.9338 6 10.7219 6 10.501C6 10.2801 6.0856 10.0682 6.23798 9.91201C6.39035 9.75579 6.59701 9.66803 6.8125 9.66803H12.6381ZM10.0625 14.666C9.84701 14.666 9.64035 14.7537 9.48798 14.91C9.3356 15.0662 9.25 15.2781 9.25 15.499C9.25 15.7199 9.3356 15.9318 9.48798 16.088C9.64035 16.2442 9.84701 16.332 10.0625 16.332C10.278 16.332 10.4847 16.2442 10.637 16.088C10.7894 15.9318 10.875 15.7199 10.875 15.499C10.875 15.2781 10.7894 15.0662 10.637 14.91C10.4847 14.7537 10.278 14.666 10.0625 14.666ZM7.76313 14.666C7.93099 14.1782 8.24229 13.7559 8.65411 13.4571C9.06594 13.1584 9.55801 12.998 10.0625 12.998C10.567 12.998 11.0591 13.1584 11.4709 13.4571C11.8827 13.7559 12.194 14.1782 12.3619 14.666H18.1875C18.403 14.666 18.6097 14.7537 18.762 14.91C18.9144 15.0662 19 15.2781 19 15.499C19 15.7199 18.9144 15.9318 18.762 16.088C18.6097 16.2442 18.403 16.332 18.1875 16.332H12.3619C12.194 16.8197 11.8827 17.2421 11.4709 17.5408C11.0591 17.8396 10.567 18 10.0625 18C9.55801 18 9.06594 17.8396 8.65411 17.5408C8.24229 17.2421 7.93099 16.8197 7.76313 16.332H6.8125C6.59701 16.332 6.39035 16.2442 6.23798 16.088C6.0856 15.9318 6 15.7199 6 15.499C6 15.2781 6.0856 15.0662 6.23798 14.91C6.39035 14.7537 6.59701 14.666 6.8125 14.666H7.76313Z" fill="white"/>
</svg>
