<svg width="22" height="22" viewBox="0 0 22 22" fill="none" xmlns="http://www.w3.org/2000/svg">
<path d="M11 21C16.5228 21 21 16.5228 21 11C21 5.47715 16.5228 1 11 1C5.47715 1 1 5.47715 1 11C1 16.5228 5.47715 21 11 21Z" stroke="white" stroke-linecap="round" stroke-linejoin="round"/>
<path d="M8.08997 7.99996C8.32507 7.33163 8.78912 6.76807 9.39992 6.40909C10.0107 6.05012 10.7289 5.9189 11.4271 6.03867C12.1254 6.15844 12.7588 6.52148 13.215 7.06349C13.6713 7.60549 13.921 8.29148 13.92 8.99996C13.92 11 10.92 12 10.92 12" stroke="white" stroke-linecap="round" stroke-linejoin="round"/>
<path d="M11 16H11.01" stroke="white" stroke-width="2" stroke-linecap="round" stroke-linejoin="round"/>
</svg>
