<svg width="24" height="24" viewBox="0 0 24 24" fill="none" xmlns="http://www.w3.org/2000/svg">
<rect x="0.5" y="0.5" width="23" height="23" rx="3.5" stroke="#4A9CD6"/>
<path d="M15.6495 12.6255H8.34995C6.59864 12.6255 5.17383 14.0504 5.17383 15.8017V19.5274C5.17383 19.7883 5.38536 19.9998 5.64627 19.9998H18.3532C18.6141 19.9998 18.8256 19.7883 18.8256 19.5274V15.8017C18.8256 14.0504 17.4008 12.6255 15.6495 12.6255ZM13.2646 13.5705L11.9997 14.8354L10.7348 13.5705H13.2646ZM6.11867 19.055V15.8017C6.11867 14.5714 7.11961 13.5704 8.34992 13.5704H9.39855L11.4213 15.5932L9.62914 19.055L6.11867 19.055ZM10.6931 19.055L11.9997 16.5311L13.3063 19.055H10.6931ZM14.3703 19.055L12.5781 15.5932L14.6009 13.5705H15.6495C16.8798 13.5705 17.8807 14.5714 17.8807 15.8017V19.055H14.3703Z" fill="#4A9CD6"/>
<path d="M15.853 15.8404H14.6927C14.4318 15.8404 14.2203 16.0519 14.2203 16.3128C14.2203 16.5737 14.4318 16.7852 14.6927 16.7852H15.853C16.1139 16.7852 16.3254 16.5737 16.3254 16.3128C16.3254 16.0519 16.1139 15.8404 15.853 15.8404Z" fill="#4A9CD6"/>
<path d="M15.273 4H8.72598C8.46508 4 8.25355 4.21153 8.25355 4.47244V8.06819C8.25355 10.1337 9.93395 11.8141 11.9995 11.8141C14.065 11.8141 15.7454 10.1337 15.7454 8.06819V4.47244C15.7454 4.21153 15.5339 4 15.273 4ZM9.19842 4.94487H14.8005V6.21053H9.19842V4.94487ZM14.8005 8.06819C14.8005 9.61269 13.544 10.8692 11.9995 10.8692C10.455 10.8692 9.19842 9.61269 9.19842 8.06819V7.15544H14.8005L14.8005 8.06819Z" fill="#4A9CD6"/>
</svg>
