<svg width="19" height="18" viewBox="0 0 19 18" fill="none" xmlns="http://www.w3.org/2000/svg">
<path d="M4.67369 12.0208C3.79523 12.0208 3.08053 12.6728 3.08053 13.4742C3.08053 14.2756 3.79523 14.9277 4.67369 14.9277C5.55214 14.9277 6.26685 14.2756 6.26685 13.4742C6.26685 12.6728 5.55218 12.0208 4.67369 12.0208ZM4.67369 13.9587C4.38087 13.9587 4.14262 13.7414 4.14262 13.4742C4.14262 13.2071 4.38087 12.9897 4.67369 12.9897C4.96651 12.9897 5.20475 13.2071 5.20475 13.4742C5.20472 13.7414 4.96654 13.9587 4.67369 13.9587Z" fill="white"/>
<path d="M18.141 1.70627C18.1282 1.46386 17.923 1.26943 17.6614 1.24728L17.6585 1.24692L13.464 0.904295C13.194 0.882243 12.949 1.04936 12.8959 1.2919L12.59 2.68782L11.0594 2.96726C10.8492 3.00562 10.6849 3.15556 10.6428 3.34731L10.3368 4.74346L8.80684 5.02239C8.62224 5.05603 8.47099 5.17633 8.40927 5.33854L7.78272 6.98449C5.75472 6.45441 3.55327 6.9595 2.04512 8.33537C-0.232487 10.4133 -0.232487 13.7943 2.04512 15.8722C3.14844 16.8788 4.61544 17.4331 6.17576 17.4331C9.40568 17.4331 12.0174 15.0435 12.0174 12.1038C12.0174 11.537 11.9208 10.984 11.7352 10.4598L17.9848 4.81433C18.0855 4.72335 18.1422 4.59936 18.1422 4.47006V1.72948C18.1422 1.72167 18.1414 1.71402 18.141 1.70627ZM6.17579 16.4642C4.89909 16.4643 3.69887 16.0107 2.79613 15.1871C0.932628 13.487 0.932628 10.7208 2.79613 9.02063C3.70704 8.18963 4.92712 7.74714 6.17158 7.74714C6.75835 7.74714 7.35082 7.84561 7.91837 8.04815C8.19876 8.14821 8.51462 8.01554 8.61347 7.75592L9.31292 5.91835L10.8922 5.63041C11.1024 5.59209 11.2668 5.44215 11.3089 5.25036L11.6149 3.85412L13.1456 3.57468C13.3559 3.53632 13.5202 3.38635 13.5622 3.19456L13.844 1.90825L16.4262 2.11915L9.55693 8.33398C9.3482 8.52286 9.34742 8.83091 9.55538 9.02057C12.5441 11.7472 10.4362 16.4642 6.17579 16.4642ZM17.0801 4.26807L11.2799 9.50761C11.1047 9.22194 10.9 8.94979 10.6665 8.69476L17.0801 2.89229V4.26807Z" fill="white"/>
</svg>
