<svg width="32" height="32" viewBox="0 0 32 32" fill="none" xmlns="http://www.w3.org/2000/svg">
<rect width="32" height="32" rx="4" fill="#EF3C49"/>
<path d="M16.375 8.25C10.875 8.25 6 11.5 6 15.25C6 17.75 7.375 19.875 9.75 21.125C12.125 22.375 9.75 21.25 9.75 21.25C9.625 22.875 8.625 23.375 8.625 23.375L6.375 24.5H8.875C12 24.5 14.25 23.125 15.25 22.125H16.25C21.625 22.125 26 19 26 15.125C26 11.25 21.75 8.25 16.375 8.25ZM16.25 20.875H14.875L14.625 21.125C14 21.75 12.625 22.875 10.5 23.25C10.875 22.625 11.125 21.875 11.125 20.75V20.375L10.75 20.25C8.5 19.125 7.25 17.375 7.25 15.25C7.25 12.25 11.625 9.5 16.375 9.5C21 9.5 24.75 12 24.75 15.25C24.75 18.25 20.875 20.875 16.25 20.875Z" fill="white"/>
<path d="M13.5 15.75C13.5 16.0815 13.3683 16.3995 13.1339 16.6339C12.8995 16.8683 12.5815 17 12.25 17C11.9185 17 11.6005 16.8683 11.3661 16.6339C11.1317 16.3995 11 16.0815 11 15.75C11 15.4185 11.1317 15.1005 11.3661 14.8661C11.6005 14.6317 11.9185 14.5 12.25 14.5C12.5815 14.5 12.8995 14.6317 13.1339 14.8661C13.3683 15.1005 13.5 15.4185 13.5 15.75Z" fill="white"/>
<path d="M17.25 15.75C17.25 16.0815 17.1183 16.3995 16.8839 16.6339C16.6495 16.8683 16.3315 17 16 17C15.6685 17 15.3505 16.8683 15.1161 16.6339C14.8817 16.3995 14.75 16.0815 14.75 15.75C14.75 15.4185 14.8817 15.1005 15.1161 14.8661C15.3505 14.6317 15.6685 14.5 16 14.5C16.3315 14.5 16.6495 14.6317 16.8839 14.8661C17.1183 15.1005 17.25 15.4185 17.25 15.75Z" fill="white"/>
<path d="M21 15.75C21 16.0815 20.8683 16.3995 20.6339 16.6339C20.3995 16.8683 20.0815 17 19.75 17C19.4185 17 19.1005 16.8683 18.8661 16.6339C18.6317 16.3995 18.5 16.0815 18.5 15.75C18.5 15.4185 18.6317 15.1005 18.8661 14.8661C19.1005 14.6317 19.4185 14.5 19.75 14.5C20.0815 14.5 20.3995 14.6317 20.6339 14.8661C20.8683 15.1005 21 15.4185 21 15.75Z" fill="white"/>
</svg>
