<svg width="35" height="35" viewBox="0 0 35 35" fill="none" xmlns="http://www.w3.org/2000/svg">
<rect width="35" height="34.0278" rx="4" fill="#ED1C24"/>
<path d="M9.0512 25.8289C8.99357 26.0075 8.98438 26.1998 9.0247 26.3838C9.06501 26.5678 9.15319 26.7359 9.27913 26.8689L9.28244 26.8725C9.37007 26.9665 9.4743 27.0411 9.58912 27.0921C9.70394 27.1431 9.8271 27.1694 9.9515 27.1695C10.0562 27.1694 10.1601 27.1511 10.2592 27.1151C13.806 25.8285 17.0292 23.6944 19.682 20.8763L26.0054 14.1417C26.3201 13.8083 26.5699 13.4121 26.7406 12.9757C26.9113 12.5393 26.9994 12.0713 27 11.5985C27.0006 11.1258 26.9136 10.6576 26.744 10.2207C26.5743 9.78385 26.3255 9.38691 26.0116 9.05263C25.6977 8.71835 25.325 8.45331 24.9148 8.27268C24.5046 8.09205 24.0649 7.99939 23.621 8C23.1771 8.00061 22.7377 8.09449 22.3279 8.27624C21.9181 8.458 21.5461 8.72406 21.233 9.0592L20.8708 9.44492L20.081 8.60378C19.7219 8.22141 19.235 8.0066 18.7272 8.0066C18.2194 8.0066 17.7324 8.22141 17.3734 8.60378L12.2803 14.0278L13.1398 14.9432L18.2329 9.5192C18.364 9.37963 18.5418 9.30122 18.7272 9.30122C18.9125 9.30122 19.0903 9.37963 19.2214 9.5192L20.0112 10.3604L14.9093 15.7938C12.2632 18.6189 10.2593 22.0516 9.0512 25.8289ZM22.0928 9.97463C22.2932 9.76112 22.5312 9.59176 22.7932 9.47621C23.0551 9.36066 23.3359 9.30119 23.6194 9.30119C23.9029 9.30119 24.1837 9.36066 24.4456 9.47621C24.7076 9.59176 24.9456 9.76112 25.146 9.97463C25.3465 10.1881 25.5056 10.4416 25.614 10.7206C25.7225 10.9995 25.7784 11.2985 25.7784 11.6005C25.7784 11.9024 25.7225 12.2014 25.614 12.4804C25.5056 12.7593 25.3465 13.0128 25.146 13.2263L21.7463 16.847L18.6931 13.5953L22.0928 9.97463ZM17.8333 14.5107L20.8865 17.7623L18.8222 19.9609C16.432 22.4997 13.5533 24.4562 10.3843 25.6953C11.5479 22.3205 13.385 19.2547 15.7689 16.7092L17.8333 14.5107Z" fill="white"/>
</svg>
