<svg width="16" height="15" viewBox="0 0 16 15" fill="none" xmlns="http://www.w3.org/2000/svg">
<path d="M8.21018 4.29648C8.52617 4.29648 8.78232 4.03881 8.78232 3.72096C8.78232 3.40311 8.52617 3.14544 8.21018 3.14544C7.89419 3.14544 7.63803 3.40311 7.63803 3.72096C7.63803 4.03881 7.89419 4.29648 8.21018 4.29648Z" fill="#11547E"/>
<path d="M13.3887 2.22403C12.0054 0.832684 10.1663 0.0664062 8.21018 0.0664062C6.25401 0.0664062 4.41494 0.832684 3.03169 2.22403C1.6485 3.61544 0.886719 5.46537 0.886719 7.43307C0.886719 9.40078 1.6485 11.2507 3.03169 12.6421C4.41494 14.0335 6.25401 14.7997 8.21018 14.7997C9.54937 14.7997 10.8597 14.4326 11.9995 13.7381C12.2698 13.5734 12.3562 13.2195 12.1925 12.9477C12.0287 12.6758 11.6769 12.5889 11.4067 12.7536C10.4457 13.3392 9.34034 13.6487 8.21018 13.6487C4.80297 13.6487 2.03101 10.8604 2.03101 7.43307C2.03101 4.00576 4.80297 1.21745 8.21018 1.21745C11.6174 1.21745 14.3893 4.00576 14.3893 7.43307C14.3893 8.65862 14.027 9.85153 13.3415 10.8829C13.1659 11.1471 13.2365 11.5045 13.4992 11.6812C13.7619 11.8578 14.1172 11.7869 14.2928 11.5226C15.1046 10.3013 15.5336 8.88713 15.5336 7.43307C15.5336 5.46537 14.7719 3.61544 13.3887 2.22403Z" fill="#11547E"/>
<path d="M8.21018 5.44753C7.89418 5.44753 7.63803 5.70519 7.63803 6.02305V11.1452C7.63803 11.463 7.89418 11.7207 8.21018 11.7207C8.52618 11.7207 8.78232 11.463 8.78232 11.1452V6.02305C8.78232 5.70519 8.52618 5.44753 8.21018 5.44753Z" fill="#11547E"/>
</svg>
