<svg width="27" height="27" viewBox="0 0 27 27" fill="none" xmlns="http://www.w3.org/2000/svg">
<g clip-path="url(#clip0)">
<path d="M1.68815 1.83684C-0.433599 4.04072 0.000651412 6.38184 0.000651412 13.4941C0.000651412 19.4003 -1.02985 25.3212 4.3634 26.7151C6.04753 27.1482 20.9695 27.1482 22.6514 26.7128C24.8969 26.1335 26.7239 24.3121 26.9736 21.1362C27.0085 20.693 27.0085 6.30309 26.9725 5.85084C26.707 2.46797 24.6246 0.518342 21.8808 0.123467C21.2519 0.0323415 21.1259 0.0053415 17.8994 -0.000283498C6.45478 0.0053415 3.94603 -0.504284 1.68815 1.83684Z" fill="url(#paint0_linear)"/>
<path d="M13.4985 3.53111C9.41364 3.53111 5.53464 3.16773 4.05302 6.97023C3.44102 8.54073 3.52989 10.5804 3.52989 13.5009C3.52989 16.0636 3.44777 18.4722 4.05302 20.0304C5.53127 23.8351 9.44177 23.4706 13.4963 23.4706C17.4079 23.4706 21.441 23.8779 22.9406 20.0304C23.5538 18.4441 23.4638 16.4349 23.4638 13.5009C23.4638 9.60611 23.6786 7.09173 21.7898 5.20398C19.8773 3.29148 17.2909 3.53111 13.494 3.53111H13.4985ZM12.6053 5.32773C21.126 5.31423 22.2105 4.36698 21.612 17.5261C21.3994 22.1802 17.8556 21.6695 13.4996 21.6695C5.55714 21.6695 5.32877 21.4422 5.32877 13.4964C5.32877 5.45823 5.95877 5.33223 12.6053 5.32548V5.32773ZM18.8198 6.98261C18.1594 6.98261 17.6239 7.51811 17.6239 8.17848C17.6239 8.83886 18.1594 9.37436 18.8198 9.37436C19.4801 9.37436 20.0156 8.83886 20.0156 8.17848C20.0156 7.51811 19.4801 6.98261 18.8198 6.98261ZM13.4985 8.38098C10.6714 8.38098 8.37977 10.6737 8.37977 13.5009C8.37977 16.328 10.6714 18.6196 13.4985 18.6196C16.3256 18.6196 18.6161 16.328 18.6161 13.5009C18.6161 10.6737 16.3256 8.38098 13.4985 8.38098ZM13.4985 10.1776C17.8916 10.1776 17.8973 16.8241 13.4985 16.8241C9.10652 16.8241 9.09977 10.1776 13.4985 10.1776Z" fill="white"/>
</g>
<defs>
<linearGradient id="paint0_linear" x1="1.73992" y1="25.2752" x2="26.8336" y2="3.55694" gradientUnits="userSpaceOnUse">
<stop stop-color="#FFDD55"/>
<stop offset="0.5" stop-color="#FF543E"/>
<stop offset="1" stop-color="#C837AB"/>
</linearGradient>
<clipPath id="clip0">
<rect width="27" height="27" fill="white"/>
</clipPath>
</defs>
</svg>
