<svg width="22" height="21" viewBox="0 0 22 21" fill="none" xmlns="http://www.w3.org/2000/svg">
<path d="M14.4656 11.3446H1.36976C0.995845 11.3446 0.692383 11.0475 0.692383 10.6816C0.692383 10.3156 0.995845 10.0186 1.36976 10.0186H14.4656C14.8395 10.0186 15.143 10.3156 15.143 10.6816C15.143 11.0475 14.8395 11.3446 14.4656 11.3446Z" fill="white"/>
<path d="M10.853 14.8805C10.6795 14.8805 10.5062 14.816 10.3742 14.6861C10.1096 14.4271 10.1096 14.0072 10.3742 13.7481L13.5082 10.6807L10.3742 7.61325C10.1096 7.35426 10.1096 6.93423 10.3742 6.67524C10.639 6.41626 11.068 6.41626 11.3326 6.67524L14.9452 10.2113C15.2098 10.4703 15.2098 10.8902 14.9452 11.1492L11.3326 14.6851C11.1998 14.816 11.0265 14.8805 10.853 14.8805Z" fill="white"/>
<path d="M11.5303 20.4055C7.41994 20.4055 3.79113 17.9851 2.28374 14.2386C2.14648 13.8992 2.31797 13.5138 2.66575 13.3795C3.01254 13.2469 3.40729 13.4122 3.54455 13.7543C4.84605 16.9889 7.98089 19.0795 11.5303 19.0795C16.261 19.0795 20.1104 15.3118 20.1104 10.6815C20.1104 6.05122 16.261 2.28351 11.5303 2.28351C7.98089 2.28351 4.84605 4.37415 3.54455 7.60868C3.4063 7.95086 3.01254 8.11613 2.66575 7.98356C2.31797 7.84921 2.14648 7.46381 2.28374 7.12438C3.79113 3.37788 7.41994 0.95752 11.5303 0.95752C17.008 0.95752 21.4652 5.32008 21.4652 10.6815C21.4652 16.0429 17.008 20.4055 11.5303 20.4055Z" fill="white"/>
</svg>
