<svg width="22" height="22" viewBox="0 0 22 22" fill="none" xmlns="http://www.w3.org/2000/svg">
<path d="M11 21C16.5228 21 21 16.5228 21 11C21 5.47715 16.5228 1 11 1C5.47715 1 1 5.47715 1 11C1 16.5228 5.47715 21 11 21Z" stroke="white" stroke-linecap="round" stroke-linejoin="round"/>
<path d="M14.8131 7.20239H7.18691C6.53245 7.20239 6 7.71373 6 8.34223V13.6578C6 14.2863 6.53245 14.7976 7.18691 14.7976H14.8131C15.4676 14.7976 16 14.2863 16 13.6578V8.34223C16 7.71373 15.4676 7.20239 14.8131 7.20239ZM14.8131 13.7913H7.18691C7.09071 13.7913 7.00634 13.729 7.00634 13.6578V9.04513L10.4555 11.9571C10.5262 12.0168 10.6161 12.0497 10.7087 12.0497L11.2912 12.0497C11.3837 12.0497 11.4737 12.0168 11.5445 11.9571L14.9937 9.04502V13.6578C14.9937 13.729 14.9093 13.7913 14.8131 13.7913ZM11 11.0505L7.64531 8.20868H14.3547L11 11.0505Z" fill="white"/>
</svg>
