<svg width="16" height="16" viewBox="0 0 16 16" fill="none" xmlns="http://www.w3.org/2000/svg">
<path fill-rule="evenodd" clip-rule="evenodd" d="M8 15C9.85652 15 11.637 14.2625 12.9497 12.9497C14.2625 11.637 15 9.85652 15 8C15 6.14348 14.2625 4.36301 12.9497 3.05025C11.637 1.7375 9.85652 1 8 1C6.14348 1 4.36301 1.7375 3.05025 3.05025C1.7375 4.36301 1 6.14348 1 8C1 9.85652 1.7375 11.637 3.05025 12.9497C4.36301 14.2625 6.14348 15 8 15ZM8 16C10.1217 16 12.1566 15.1571 13.6569 13.6569C15.1571 12.1566 16 10.1217 16 8C16 5.87827 15.1571 3.84344 13.6569 2.34315C12.1566 0.842855 10.1217 0 8 0C5.87827 0 3.84344 0.842855 2.34315 2.34315C0.842855 3.84344 0 5.87827 0 8C0 10.1217 0.842855 12.1566 2.34315 13.6569C3.84344 15.1571 5.87827 16 8 16Z" fill="#11547E"/>
<path fill-rule="evenodd" clip-rule="evenodd" d="M7.646 11.354C7.59944 11.3076 7.56249 11.2524 7.53729 11.1916C7.51208 11.1309 7.49911 11.0658 7.49911 11C7.49911 10.9342 7.51208 10.8691 7.53729 10.8084C7.56249 10.7476 7.59944 10.6924 7.646 10.646L10.293 8L7.646 5.354C7.59951 5.30751 7.56264 5.25232 7.53748 5.19158C7.51232 5.13084 7.49937 5.06574 7.49937 5C7.49937 4.93426 7.51232 4.86916 7.53748 4.80842C7.56264 4.74768 7.59951 4.69249 7.646 4.646C7.69249 4.59951 7.74768 4.56264 7.80842 4.53748C7.86916 4.51232 7.93426 4.49937 8 4.49937C8.06574 4.49937 8.13084 4.51232 8.19158 4.53748C8.25232 4.56264 8.30751 4.59951 8.354 4.646L11.354 7.646C11.4006 7.69245 11.4375 7.74762 11.4627 7.80837C11.4879 7.86911 11.5009 7.93423 11.5009 8C11.5009 8.06577 11.4879 8.13089 11.4627 8.19163C11.4375 8.25238 11.4006 8.30755 11.354 8.354L8.354 11.354C8.30755 11.4006 8.25238 11.4375 8.19163 11.4627C8.13089 11.4879 8.06577 11.5009 8 11.5009C7.93423 11.5009 7.86911 11.4879 7.80837 11.4627C7.74762 11.4375 7.69245 11.4006 7.646 11.354Z" fill="#11547E"/>
<path fill-rule="evenodd" clip-rule="evenodd" d="M4.5 8C4.5 7.86739 4.55268 7.74021 4.64645 7.64645C4.74021 7.55268 4.86739 7.5 5 7.5H10C10.1326 7.5 10.2598 7.55268 10.3536 7.64645C10.4473 7.74021 10.5 7.86739 10.5 8C10.5 8.13261 10.4473 8.25979 10.3536 8.35355C10.2598 8.44732 10.1326 8.5 10 8.5H5C4.86739 8.5 4.74021 8.44732 4.64645 8.35355C4.55268 8.25979 4.5 8.13261 4.5 8Z" fill="#11547E"/>
</svg>
