<svg width="53" height="53" viewBox="0 0 53 53" fill="none" xmlns="http://www.w3.org/2000/svg">
<path d="M46.8798 43.4029C49.6001 40.1326 51.4921 36.2557 52.3958 32.1003C53.2994 27.9448 53.1881 23.6331 52.0712 19.5297C50.9544 15.4263 48.8648 11.6521 45.9794 8.52629C43.094 5.40047 39.4975 3.01502 35.4942 1.57174C31.491 0.128457 27.1987 -0.3302 22.9805 0.234568C18.7623 0.799337 14.7423 2.37092 11.2605 4.81636C7.7788 7.2618 4.93773 10.5092 2.97768 14.2837C1.01764 18.0583 -0.00371756 22.2491 1.01674e-05 26.5015C0.00144063 32.6832 2.18166 38.667 6.15809 43.4029L6.1202 43.435C6.2528 43.594 6.40433 43.7303 6.54072 43.8874C6.7112 44.0823 6.89493 44.2659 7.0711 44.4552C7.60148 45.0306 8.14701 45.5832 8.71906 46.1018C8.89333 46.2608 9.07328 46.4084 9.24944 46.5598C9.85558 47.0822 10.4788 47.5781 11.1247 48.0399C11.2081 48.0967 11.2838 48.1705 11.3672 48.2291V48.2064C15.8036 51.3258 21.096 53 26.5208 53C31.9457 53 37.2381 51.3258 41.6745 48.2064V48.2291C41.7579 48.1705 41.8317 48.0967 41.917 48.0399C42.561 47.5762 43.1861 47.0822 43.7923 46.5598C43.9684 46.4084 44.1484 46.2589 44.3226 46.1018C44.8947 45.5813 45.4402 45.0306 45.9706 44.4552C46.1468 44.2659 46.3286 44.0823 46.501 43.8874C46.6355 43.7303 46.7889 43.594 46.9215 43.4332L46.8798 43.4029ZM26.519 11.3602C28.2048 11.3602 29.8528 11.8597 31.2546 12.7956C32.6564 13.7314 33.7489 15.0616 34.3941 16.6179C35.0392 18.1741 35.208 19.8866 34.8791 21.5387C34.5502 23.1909 33.7384 24.7084 32.5463 25.8996C31.3542 27.0907 29.8354 27.9018 28.1819 28.2305C26.5284 28.5591 24.8145 28.3904 23.257 27.7458C21.6994 27.1012 20.3682 26.0095 19.4316 24.6089C18.4949 23.2083 17.995 21.5617 17.995 19.8772C17.995 17.6183 18.8931 15.452 20.4916 13.8548C22.0902 12.2575 24.2583 11.3602 26.519 11.3602ZM11.3785 43.4029C11.4114 40.9178 12.4221 38.5455 14.1921 36.7993C15.9621 35.0531 18.3489 34.0734 20.8363 34.0721H32.2016C34.689 34.0734 37.0758 35.0531 38.8458 36.7993C40.6158 38.5455 41.6265 40.9178 41.6594 43.4029C37.5051 47.1434 32.1112 49.2135 26.519 49.2135C20.9268 49.2135 15.5328 47.1434 11.3785 43.4029Z" fill="#E6EBF3"/>
</svg>
