<svg width="32" height="24" viewBox="0 0 32 24" fill="none" xmlns="http://www.w3.org/2000/svg">
<path d="M29.031 10.5262V3.40003C29.031 1.82897 27.7528 0.550781 26.1817 0.550781H5.81825C4.24719 0.550781 2.969 1.82897 2.969 3.40003V10.5262C1.25925 10.9995 0 12.5682 0 14.4265V19.841C0 20.3657 0.425375 20.791 0.95 20.791H2.969V22.5C2.969 23.0247 3.39437 23.45 3.919 23.45C4.44362 23.45 4.869 23.0247 4.869 22.5V20.791H27.131V22.5C27.131 23.0247 27.5564 23.45 28.081 23.45C28.6056 23.45 29.031 23.0247 29.031 22.5V20.791H31.05C31.5746 20.791 32 20.3657 32 19.841V14.4265C32 12.5682 30.7407 10.9995 29.031 10.5262ZM4.869 3.40003C4.869 2.87666 5.29488 2.45078 5.81825 2.45078H26.1818C26.7052 2.45078 27.1311 2.87666 27.1311 3.40003V10.3792H24.9051V8.47222C24.9051 6.81403 23.5561 5.46503 21.8979 5.46503H18.0572C17.262 5.46503 16.5384 5.77584 16.0001 6.28178C15.4618 5.77591 14.7381 5.46503 13.9429 5.46503H10.1022C8.444 5.46503 7.095 6.81409 7.095 8.47222V10.3792H4.869V3.40003ZM23.0051 8.47222V10.3792H16.95V8.47222C16.95 7.86166 17.4468 7.36503 18.0572 7.36503H21.8979C22.5084 7.36503 23.0051 7.86172 23.0051 8.47222ZM15.0499 8.47222V10.3792H8.99481V8.47222C8.99481 7.86166 9.49156 7.36503 10.102 7.36503H13.9427C14.5532 7.36503 15.0499 7.86172 15.0499 8.47222ZM30.1 18.891H1.9V14.4265C1.9 13.2425 2.86325 12.2792 4.04731 12.2792H27.9527C29.1367 12.2792 30.1 13.2424 30.1 14.4265V18.891Z" fill="#178DE0"/>
</svg>
