<svg width="17" height="13" viewBox="0 0 17 13" fill="none" xmlns="http://www.w3.org/2000/svg">
<path d="M8.49951 0C4.95784 0 2.12451 2.88889 2.12451 6.5C2.12451 10.1111 4.95784 13 8.49951 13C12.0412 13 14.8745 10.1111 14.8745 6.5C14.8745 2.88889 12.0412 0 8.49951 0ZM8.49951 11.5556C5.73701 11.5556 3.54118 9.31667 3.54118 6.5C3.54118 3.68333 5.73701 1.44444 8.49951 1.44444C11.262 1.44444 13.4578 3.68333 13.4578 6.5C13.4578 9.31667 11.262 11.5556 8.49951 11.5556ZM14.5203 12.6389C16.0787 11.05 16.9995 8.88333 16.9995 6.5C16.9995 4.11667 16.0787 1.95 14.5203 0.361111L13.7412 1.15556C15.087 2.52778 15.937 4.40556 15.937 6.5C15.937 8.59444 15.087 10.4722 13.7412 11.8444L14.5203 12.6389ZM3.25784 11.8444C1.91201 10.4722 1.06201 8.59444 1.06201 6.5C1.06201 4.40556 1.91201 2.52778 3.25784 1.15556L2.47868 0.361111C0.920345 1.95 -0.000488281 4.11667 -0.000488281 6.5C-0.000488281 8.88333 0.920345 11.05 2.47868 12.6389L3.25784 11.8444ZM6.72868 2.88889V10.1111H8.14534V7.22222H9.56201C9.93773 7.22222 10.2981 7.07004 10.5637 6.79915C10.8294 6.52827 10.9787 6.16087 10.9787 5.77778V4.33333C10.9787 3.95024 10.8294 3.58284 10.5637 3.31196C10.2981 3.04107 9.93773 2.88889 9.56201 2.88889H6.72868ZM8.14534 4.33333H9.56201V5.77778H8.14534V4.33333Z" fill="#11547E"/>
</svg>
