<svg width="15" height="15" viewBox="0 0 15 15" fill="none" xmlns="http://www.w3.org/2000/svg">
<path d="M7.5 3.33333L4.58333 0H0L5.83333 7.08333L10.6337 5.10417L7.5 3.33333Z" fill="#55ACEE"/>
<path d="M10.4167 0L7.5 3.33333L9.74583 6.38L10.2571 5.75958L15 0H10.4167Z" fill="#3B88C3"/>
<path d="M9.69167 6.67775C9.72501 6.58733 9.74626 6.49108 9.74626 6.389C9.74626 6.16798 9.65846 5.95602 9.50218 5.79974C9.3459 5.64346 9.13394 5.55566 8.91292 5.55566H6.13501C5.91399 5.55566 5.70203 5.64346 5.54575 5.79974C5.38947 5.95602 5.30167 6.16798 5.30167 6.389C5.30167 6.49108 5.32251 6.58733 5.35626 6.67775C3.99876 7.43858 3.07959 8.889 3.07959 10.5557C3.07959 13.0102 5.06917 15.0002 7.52417 15.0002C9.97876 15.0002 11.9688 13.0102 11.9688 10.5557C11.9683 8.889 11.0496 7.43858 9.69167 6.67775Z" fill="#FFAC33"/>
<path d="M7.52425 13.8883C9.3652 13.8883 10.8576 12.396 10.8576 10.555C10.8576 8.71406 9.3652 7.22168 7.52425 7.22168C5.6833 7.22168 4.19092 8.71406 4.19092 10.555C4.19092 12.396 5.6833 13.8883 7.52425 13.8883Z" fill="#FFD983"/>
<path d="M8.86579 12.7646C8.80509 12.7645 8.74595 12.7454 8.69662 12.71L7.49996 11.8521L6.30371 12.71C6.25414 12.7456 6.19462 12.7647 6.13358 12.7646C6.07255 12.7644 6.01311 12.7451 5.96371 12.7092C5.91431 12.6734 5.87746 12.6229 5.85838 12.5649C5.83931 12.5069 5.83899 12.4444 5.85746 12.3863L6.30371 10.9463L5.11829 10.1108C5.06928 10.0746 5.03291 10.0238 5.01433 9.96574C4.99574 9.90766 4.99588 9.84522 5.01472 9.78723C5.03356 9.72924 5.07015 9.67863 5.11931 9.64257C5.16848 9.60651 5.22774 9.58681 5.28871 9.58626L6.75704 9.58418L7.22454 8.18001C7.24367 8.12196 7.28063 8.07141 7.33015 8.03558C7.37968 7.99976 7.43925 7.98047 7.50037 7.98047C7.5615 7.98047 7.62107 7.99976 7.6706 8.03558C7.72012 8.07141 7.75708 8.12196 7.77621 8.18001L8.23579 9.58418L9.71162 9.58626C9.77272 9.58655 9.83218 9.6061 9.88152 9.64213C9.93087 9.67816 9.9676 9.72884 9.98647 9.78695C10.0054 9.84506 10.0054 9.90764 9.98667 9.9658C9.96792 10.0239 9.93131 10.0747 9.88204 10.1108L8.69621 10.9463L9.14246 12.3863C9.15647 12.4298 9.15998 12.476 9.1527 12.5211C9.14541 12.5663 9.12755 12.609 9.10056 12.646C9.07357 12.6829 9.03823 12.7128 8.99742 12.7335C8.95662 12.7541 8.91151 12.7648 8.86579 12.7646Z" fill="#FFAC33"/>
</svg>
