<svg width="14" height="14" viewBox="0 0 14 14" fill="none" xmlns="http://www.w3.org/2000/svg">
<path d="M5.98998 3.47394L4.01656 1.19601C3.78906 0.933503 3.37197 0.93467 3.10772 1.19951L1.48489 2.82527C1.00189 3.30886 0.863635 4.02695 1.14305 4.60271C2.81233 8.05897 5.59975 10.8503 9.05365 12.5245C9.62882 12.8039 10.3463 12.6656 10.8293 12.182L12.4673 10.5411C12.7327 10.2757 12.7333 9.85626 12.4685 9.62876L10.1818 7.66582C9.94265 7.46048 9.57107 7.48732 9.33131 7.72765L8.53565 8.52449C8.49491 8.56719 8.44129 8.59533 8.38302 8.6046C8.32474 8.61388 8.26504 8.60377 8.21306 8.57583C6.91249 7.82688 5.83364 6.74661 5.08639 5.44505C5.05841 5.39299 5.04827 5.33318 5.05755 5.2748C5.06682 5.21643 5.09499 5.16271 5.13773 5.12188L5.93106 4.32795C6.17139 4.08645 6.19764 3.71311 5.98998 3.47336V3.47394Z" stroke="#111111" stroke-linecap="round" stroke-linejoin="round"/>
</svg>
