<svg width="21" height="32" viewBox="0 0 21 32" fill="none" xmlns="http://www.w3.org/2000/svg">
<path d="M10.6733 0.150665C5.22726 0.150665 0.814453 4.54573 0.814453 9.98977C0.814453 19.403 10.6733 31.6792 10.6733 31.6792C10.6733 31.6792 20.5321 19.401 20.5321 9.98977C20.5321 4.5477 16.1193 0.150665 10.6733 0.150665ZM10.6733 15.4338C9.26132 15.4338 7.9072 14.8729 6.9088 13.8745C5.9104 12.8761 5.34951 11.522 5.34951 10.11C5.34951 8.69809 5.9104 7.34398 6.9088 6.34558C7.9072 5.34718 9.26132 4.78628 10.6733 4.78628C12.0852 4.78628 13.4393 5.34718 14.4377 6.34558C15.4361 7.34398 15.997 8.69809 15.997 10.11C15.997 11.522 15.4361 12.8761 14.4377 13.8745C13.4393 14.8729 12.0852 15.4338 10.6733 15.4338Z" fill="#FF0000"/>
</svg>
