<svg width="24" height="24" viewBox="0 0 24 24" fill="none" xmlns="http://www.w3.org/2000/svg">
<path d="M8.62411 15.3733C8.34339 15.0927 7.97016 14.9382 7.57315 14.9382C7.17614 14.9382 6.80294 15.0927 6.52221 15.3733C6.24149 15.6539 6.08687 16.0269 6.08687 16.4237C6.08687 16.8205 6.24149 17.1935 6.52221 17.4741C6.812 17.7638 7.1925 17.9085 7.57315 17.9085C7.95371 17.9085 8.33439 17.7637 8.62411 17.4741C9.20359 16.8949 9.20359 15.9525 8.62411 15.3733ZM7.99701 16.8473C7.76333 17.0809 7.38306 17.0809 7.14935 16.8473C7.03612 16.7341 6.9738 16.5837 6.9738 16.4237C6.9738 16.2637 7.03615 16.1132 7.14938 16.0001C7.26259 15.8869 7.41307 15.8247 7.57318 15.8247C7.73328 15.8247 7.8838 15.8869 7.99698 16.0001C8.23068 16.2337 8.23068 16.6137 7.99701 16.8473Z" fill="#4a9cd6"/>
<path d="M18.9346 6.62434C18.7418 5.8647 18.1753 5.28711 17.4192 5.07922C16.6631 4.87142 15.8808 5.07811 15.3264 5.63229L9.75181 11.2039C8.16253 10.7385 6.42835 11.1865 5.26406 12.3843C4.44863 13.2231 3.99971 14.334 4 15.5123C4.00029 16.6907 4.44974 17.8014 5.26556 18.6398C6.11075 19.5084 7.24332 19.9914 8.45465 19.9999C8.46544 20 8.47617 20 8.48692 20C9.68635 20 10.8128 19.5338 11.6618 18.6853C12.278 18.0694 12.6989 17.2954 12.8789 16.4468C13.0343 15.7147 13.005 14.9597 12.7957 14.2462L18.3703 8.67459C18.904 8.14119 19.1203 7.35556 18.9346 6.62434ZM17.7432 8.04782L17.3915 8.39929L16.8641 7.87206C16.6909 7.69901 16.4101 7.69901 16.237 7.87206C16.0638 8.04512 16.0638 8.32576 16.237 8.49884L16.7645 9.02607L16.315 9.47525L15.7875 8.94802C15.6144 8.77496 15.3336 8.77496 15.1604 8.94802C14.9873 9.12108 14.9873 9.40171 15.1604 9.5748L15.6879 10.102L11.976 13.8119C11.8542 13.9337 11.814 14.1151 11.8728 14.2769C12.3502 15.5881 12.0212 17.0725 11.0347 18.0585C10.3533 18.7395 9.44939 19.1136 8.48675 19.1136C8.47816 19.1136 8.46945 19.1135 8.46084 19.1135C7.48875 19.1067 6.57978 18.719 5.90134 18.0217C4.555 16.6381 4.55447 14.3862 5.90014 13.0019C6.59095 12.2913 7.53152 11.9095 8.49047 11.9095C8.90345 11.9095 9.31995 11.9803 9.72115 12.1262C9.88307 12.1852 10.0645 12.1449 10.1863 12.0231L15.9535 6.25907C16.2795 5.93329 16.7395 5.81173 17.1839 5.9339C17.6285 6.05613 17.9615 6.39574 18.0749 6.8424C18.1841 7.2723 18.057 7.73422 17.7432 8.04782Z" fill="#4a9cd6"/>
<rect x="0.5" y="0.5" width="23" height="23" rx="3.5" stroke="#4a9cd6"/>
</svg>
