<svg width="14" height="9" viewBox="0 0 14 9" fill="none" xmlns="http://www.w3.org/2000/svg">
<path d="M5.1375 4.5C5.1375 4.91003 5.32696 5.30326 5.6642 5.5932C6.00144 5.88313 6.45884 6.04601 6.93577 6.04601C7.4127 6.04601 7.8701 5.88313 8.20734 5.5932C8.54458 5.30326 8.73404 4.91003 8.73404 4.5C8.73404 4.08997 8.54458 3.69674 8.20734 3.4068C7.8701 3.11687 7.4127 2.95399 6.93577 2.95399C6.45884 2.95399 6.00144 3.11687 5.6642 3.4068C5.32696 3.69674 5.1375 4.08997 5.1375 4.5ZM13.9073 4.14387C12.3852 1.38727 10.0843 0 7 0C3.91404 0 1.61482 1.38727 0.0927157 4.14525C0.0316634 4.25639 0 4.37778 0 4.50069C0 4.6236 0.0316634 4.74499 0.0927157 4.85613C1.61482 7.61273 3.91564 9 7 9C10.086 9 12.3852 7.61273 13.9073 4.85475C14.0309 4.63113 14.0309 4.37163 13.9073 4.14387ZM6.93577 6.92945C5.37513 6.92945 4.10992 5.84172 4.10992 4.5C4.10992 3.15828 5.37513 2.07055 6.93577 2.07055C8.49641 2.07055 9.76162 3.15828 9.76162 4.5C9.76162 5.84172 8.49641 6.92945 6.93577 6.92945Z" fill="#BFC3CD"/>
</svg>
