<svg width="17" height="17" viewBox="0 0 17 17" fill="none" xmlns="http://www.w3.org/2000/svg">
<path d="M11.9 0H5.1C2.28792 0 0 2.28731 0 5.09864V9.06425C0 11.7807 2.13577 14.0077 4.81667 14.1552V16.5187C4.81667 16.7842 5.03313 17 5.29918 17C5.4264 17 5.54682 16.9496 5.63777 16.8587L6.1693 16.3273C7.565 14.9317 9.42112 14.1629 11.3954 14.1629H11.9C14.7121 14.1629 17 11.8756 17 9.06425V5.09864C17 2.28731 14.7121 0 11.9 0ZM4.81667 8.21448C4.19163 8.21448 3.68333 7.70631 3.68333 7.08145C3.68333 6.45658 4.19163 5.94841 4.81667 5.94841C5.4417 5.94841 5.95 6.45658 5.95 7.08145C5.95 7.70631 5.44142 8.21448 4.81667 8.21448ZM8.5 8.21448C7.87497 8.21448 7.36667 7.70631 7.36667 7.08145C7.36667 6.45658 7.87497 5.94841 8.5 5.94841C9.12503 5.94841 9.63333 6.45658 9.63333 7.08145C9.63333 7.70631 9.12475 8.21448 8.5 8.21448ZM12.1833 8.21448C11.5583 8.21448 11.05 7.70631 11.05 7.08145C11.05 6.45658 11.5583 5.94841 12.1833 5.94841C12.8084 5.94841 13.3167 6.45658 13.3167 7.08145C13.3167 7.70631 12.8081 8.21448 12.1833 8.21448Z" fill="#EE4C07"/>
<path d="M2.54772 4.81538H15.0144V9.91402H2.54772V4.81538Z" fill="#EE4C07"/>
<path d="M8.5 4L7.41814 6.01688L5 6.33844L6.75 7.90906L6.33628 10.125L8.5 9.07937L10.6637 10.125L10.25 7.90906L12 6.34063L9.58186 6.01688L8.5 4Z" fill="white"/>
</svg>
