<svg width="22" height="22" viewBox="0 0 22 22" fill="none" xmlns="http://www.w3.org/2000/svg">
<path d="M21.2133 11.1575C21.2133 5.52658 16.5602 0.95752 10.827 0.95752C5.09366 0.95752 0.440552 5.52658 0.440552 11.1575C0.440552 14.2588 1.87387 17.0539 4.11734 18.93C4.13811 18.9504 4.15888 18.9504 4.15888 18.9708C4.34584 19.1138 4.53279 19.2567 4.74052 19.3997C4.84438 19.4609 4.92748 19.5413 5.03134 19.623C6.74778 20.767 8.77396 21.3784 10.8477 21.3779C12.9215 21.3784 14.9477 20.767 16.6641 19.623C16.768 19.5618 16.8511 19.4814 16.9549 19.4188C17.1419 19.2772 17.3496 19.1342 17.5366 18.9913C17.5573 18.9708 17.5781 18.9708 17.5781 18.9504C19.78 17.0526 21.2133 14.2588 21.2133 11.1575ZM10.827 20.0927C8.87431 20.0927 7.08785 19.4801 5.61298 18.4603C5.63375 18.297 5.6753 18.1349 5.71684 17.9715C5.84062 17.5288 6.02216 17.1037 6.25693 16.7067C6.48544 16.3188 6.75548 15.9716 7.08785 15.6653C7.39944 15.359 7.77335 15.0744 8.14726 14.8498C8.54194 14.6251 8.9574 14.4618 9.4144 14.3393C9.87496 14.2172 10.35 14.1558 10.827 14.1567C12.2429 14.1469 13.6069 14.6808 14.6284 15.6449C15.1061 16.1145 15.4801 16.6659 15.7501 17.2977C15.8955 17.6652 15.9994 18.0532 16.0617 18.4603C14.5286 19.5198 12.701 20.0898 10.827 20.0927ZM7.64871 10.6483C7.46568 10.2363 7.37364 9.79087 7.37867 9.34136C7.37867 8.89339 7.46176 8.44414 7.64871 8.03573C7.83567 7.62733 8.08494 7.26104 8.39653 6.95473C8.70812 6.64842 9.08204 6.40466 9.49749 6.22087C9.91295 6.03709 10.3699 5.95541 10.827 5.95541C11.3047 5.95541 11.741 6.03709 12.1564 6.22087C12.5719 6.40466 12.9458 6.6497 13.2574 6.95473C13.569 7.26104 13.8182 7.6286 14.0052 8.03573C14.1921 8.44414 14.2752 8.89339 14.2752 9.34136C14.2752 9.81103 14.1921 10.2399 14.0052 10.647C13.8248 11.0494 13.5714 11.4161 13.2574 11.7293C12.9387 12.0375 12.5656 12.2861 12.1564 12.4631C11.298 12.8099 10.3351 12.8099 9.47672 12.4631C9.06751 12.2861 8.69445 12.0375 8.37576 11.7293C8.06133 11.4207 7.81398 11.0524 7.64871 10.647V10.6483ZM17.2873 17.4202C17.2873 17.3793 17.2665 17.3589 17.2665 17.3181C17.0622 16.6792 16.7611 16.0742 16.3733 15.5236C15.9851 14.9689 15.5081 14.4797 14.9607 14.0751C14.5427 13.7659 14.0896 13.5055 13.6105 13.2991C13.8285 13.1577 14.0304 12.9939 14.2129 12.8103C14.5226 12.5097 14.7946 12.1738 15.0231 11.8097C15.4831 11.0666 15.7207 10.2111 15.7086 9.34136C15.715 8.6975 15.5878 8.05912 15.3346 7.46524C15.0848 6.89301 14.7251 6.37346 14.2752 5.93499C13.8261 5.50109 13.2975 5.15466 12.7173 4.91397C12.1121 4.6656 11.4619 4.54097 10.8062 4.54768C10.1504 4.54137 9.50012 4.66644 8.89508 4.91524C8.30988 5.15542 7.77998 5.5092 7.33712 5.95541C6.89575 6.39647 6.54333 6.9157 6.29848 7.48566C6.04538 8.07954 5.91815 8.71792 5.92457 9.36178C5.92457 9.81103 5.98689 10.2399 6.11153 10.647C6.23616 11.0758 6.40234 11.4638 6.63085 11.8301C6.83857 12.1977 7.12939 12.5244 7.44098 12.8307C7.62794 13.0145 7.83567 13.1766 8.06417 13.3195C7.58358 13.5314 7.13033 13.7988 6.71394 14.1159C6.17384 14.5243 5.69607 15.0131 5.30139 15.5441C4.90964 16.0924 4.6082 16.6979 4.40816 17.3385C4.38738 17.3793 4.38738 17.4202 4.38738 17.4406C2.74633 15.8082 1.72847 13.6054 1.72847 11.1575C1.72847 6.24129 5.82071 2.22231 10.827 2.22231C15.8332 2.22231 19.9254 6.24129 19.9254 11.1575C19.9227 13.5058 18.9742 15.7575 17.2873 17.4202Z" fill="white"/>
</svg>
