<svg width="16" height="16" viewBox="0 0 16 16" fill="none" xmlns="http://www.w3.org/2000/svg">
<path fill-rule="evenodd" clip-rule="evenodd" d="M1 8C1 9.85652 1.7375 11.637 3.05025 12.9497C4.36301 14.2625 6.14348 15 8 15C9.85652 15 11.637 14.2625 12.9497 12.9497C14.2625 11.637 15 9.85652 15 8C15 6.14348 14.2625 4.36301 12.9497 3.05025C11.637 1.7375 9.85652 1 8 1C6.14348 1 4.36301 1.7375 3.05025 3.05025C1.7375 4.36301 1 6.14348 1 8ZM0 8C0 10.1217 0.842854 12.1566 2.34315 13.6569C3.84344 15.1571 5.87827 16 8 16C10.1217 16 12.1566 15.1571 13.6569 13.6569C15.1571 12.1566 16 10.1217 16 8C16 5.87827 15.1571 3.84344 13.6569 2.34315C12.1566 0.842855 10.1217 0 8 0C5.87827 0 3.84344 0.842855 2.34315 2.34315C0.842854 3.84344 0 5.87827 0 8Z" fill="#11547E"/>
<path fill-rule="evenodd" clip-rule="evenodd" d="M4.646 7.646C4.69245 7.59944 4.74762 7.56249 4.80837 7.53729C4.86911 7.51208 4.93423 7.49911 5 7.49911C5.06577 7.49911 5.13089 7.51208 5.19163 7.53729C5.25238 7.56249 5.30755 7.59944 5.354 7.646L8 10.293L10.646 7.646C10.6925 7.59951 10.7477 7.56264 10.8084 7.53748C10.8692 7.51232 10.9343 7.49937 11 7.49937C11.0657 7.49937 11.1308 7.51232 11.1916 7.53748C11.2523 7.56264 11.3075 7.59951 11.354 7.646C11.4005 7.69249 11.4374 7.74768 11.4625 7.80842C11.4877 7.86916 11.5006 7.93426 11.5006 8C11.5006 8.06574 11.4877 8.13084 11.4625 8.19158C11.4374 8.25232 11.4005 8.30751 11.354 8.354L8.354 11.354C8.30755 11.4006 8.25238 11.4375 8.19163 11.4627C8.13089 11.4879 8.06577 11.5009 8 11.5009C7.93423 11.5009 7.86911 11.4879 7.80837 11.4627C7.74762 11.4375 7.69245 11.4006 7.646 11.354L4.646 8.354C4.59944 8.30755 4.56249 8.25238 4.53729 8.19163C4.51208 8.13089 4.49911 8.06577 4.49911 8C4.49911 7.93423 4.51208 7.86911 4.53729 7.80837C4.56249 7.74762 4.59944 7.69245 4.646 7.646Z" fill="#11547E"/>
<path fill-rule="evenodd" clip-rule="evenodd" d="M8 4.5C8.13261 4.5 8.25979 4.55268 8.35355 4.64645C8.44732 4.74021 8.5 4.86739 8.5 5L8.5 10C8.5 10.1326 8.44732 10.2598 8.35355 10.3536C8.25979 10.4473 8.13261 10.5 8 10.5C7.86739 10.5 7.74021 10.4473 7.64645 10.3536C7.55268 10.2598 7.5 10.1326 7.5 10V5C7.5 4.86739 7.55268 4.74021 7.64645 4.64645C7.74021 4.55268 7.86739 4.5 8 4.5Z" fill="#11547E"/>
</svg>
