<svg width="9" height="15" viewBox="0 0 9 15" fill="none" xmlns="http://www.w3.org/2000/svg">
<path d="M7.70368 7.65401L4.01369 6.23467C3.32023 5.96806 2.8126 5.30213 2.8126 4.46057C2.82549 3.55536 3.55874 2.81654 4.44726 2.81332C5.38853 2.81332 6.09334 3.5747 6.09334 4.45384C6.09334 5.22078 6.7141 5.86494 7.5118 5.85999C8.28606 5.85325 8.91122 5.20759 8.90565 4.42044C8.89686 3.24366 8.43371 2.13719 7.60144 1.30522C5.86191 -0.434927 3.04406 -0.43522 1.30421 1.30522C0.463153 2.14598 0 3.26417 0 4.45384V13.5938C0 14.3693 0.630719 15 1.40616 15H7.4995C8.27493 15 8.90565 14.3693 8.90565 13.5938V9.4038C8.90565 8.63363 8.42258 7.93026 7.70368 7.65401ZM6.53276 13.1251H2.34359C2.08463 13.1251 1.87487 12.9154 1.87487 12.6564C1.87487 12.3974 2.08463 12.1877 2.34359 12.1877H6.53276C6.79173 12.1877 7.00148 12.3974 7.00148 12.6564C7.00148 12.9154 6.79173 13.1251 6.53276 13.1251ZM6.53276 11.2503H2.34359C2.08463 11.2503 1.87487 11.0405 1.87487 10.7815C1.87487 10.5226 2.08463 10.3128 2.34359 10.3128H6.53276C6.79173 10.3128 7.00148 10.5226 7.00148 10.7815C7.00148 11.0405 6.79173 11.2503 6.53276 11.2503Z" fill="#138DD9"/>
</svg>
