<svg width="17" height="17" viewBox="0 0 17 17" fill="none" xmlns="http://www.w3.org/2000/svg">
<path d="M2 14.2678L5.91067 10.3571C4.97091 9.22892 4.50229 7.78185 4.60228 6.31693C4.70228 4.85202 5.36319 3.48205 6.44754 2.49202C7.53189 1.50199 8.95618 0.968119 10.4241 1.00147C11.8921 1.03483 13.2906 1.63284 14.3289 2.6711C15.3672 3.70936 15.9652 5.10793 15.9985 6.57588C16.0319 8.04382 15.498 9.46811 14.508 10.5525C13.518 11.6368 12.148 12.2977 10.6831 12.3977C9.21815 12.4977 7.77108 12.0291 6.64289 11.0893L2.73222 15L2 14.2678ZM14.9458 6.71468C14.9458 5.79292 14.6725 4.89186 14.1604 4.12545C13.6483 3.35903 12.9204 2.76168 12.0688 2.40894C11.2172 2.0562 10.2802 1.96391 9.37611 2.14373C8.47206 2.32356 7.64164 2.76743 6.98986 3.41921C6.33807 4.07099 5.8942 4.90141 5.71438 5.80546C5.53455 6.70951 5.62685 7.64658 5.97959 8.49817C6.33233 9.34976 6.92968 10.0776 7.69609 10.5897C8.4625 11.1018 9.36356 11.3752 10.2853 11.3752C11.5209 11.3738 12.7056 10.8823 13.5793 10.0086C14.453 9.13492 14.9444 7.9503 14.9458 6.71468Z" fill="white"/>
<path d="M13.7446 4.40323C14.2018 5.08735 14.4458 5.89165 14.4458 6.71444C14.4445 7.81753 14.0057 8.87507 13.2257 9.65508C12.4456 10.4352 11.388 10.8739 10.2848 10.8752L13.7446 4.40323ZM13.7446 4.40323C13.2875 3.71904 12.6377 3.18578 11.8775 2.87088M13.7446 4.40323L11.8775 2.87088M11.8775 2.87088C11.1172 2.55598 10.2807 2.47359 9.47365 2.63413M11.8775 2.87088L9.47365 2.63413M9.47365 2.63413C8.66659 2.79466 7.92526 3.19091 7.34341 3.77276M9.47365 2.63413L7.34341 3.77276M7.34341 3.77276C6.76155 4.35462 6.3653 5.09595 6.20477 5.90301M7.34341 3.77276L6.20477 5.90301M6.20477 5.90301C6.04424 6.71006 6.12663 7.5466 6.44153 8.30683M6.20477 5.90301L6.44153 8.30683M6.44153 8.30683C6.75642 9.06706 7.28969 9.71684 7.97388 10.174M6.44153 8.30683L7.97388 10.174M7.97388 10.174C8.65791 10.6311 9.46209 10.8751 10.2848 10.8752L7.97388 10.174ZM1.64645 14.6213L1.29289 14.2678L1.64645 13.9142L5.24633 10.3143C4.4122 9.14763 4.00513 7.72318 4.10344 6.28288C4.2122 4.68959 4.93104 3.19956 6.11041 2.12277C7.28978 1.04598 8.8389 0.465325 10.4355 0.501603C12.0321 0.53788 13.5532 1.1883 14.6825 2.31754C15.8117 3.44679 16.4621 4.96793 16.4984 6.56452C16.5347 8.1611 15.954 9.71022 14.8772 10.8896C13.8004 12.069 12.3104 12.7878 10.7171 12.8966C9.27682 12.9949 7.85237 12.5878 6.68565 11.7537L3.08577 15.3536L2.73222 15.7071L2.37866 15.3536L1.64645 14.6213Z" stroke="white" stroke-opacity="0.2"/>
</svg>
