<?xml version="1.0" encoding="iso-8859-1"?>
<!-- Generator: Adobe Illustrator 18.1.1, SVG Export Plug-In . SVG Version: 6.00 Build 0)  -->
<svg version="1.1" id="Capa_1" xmlns="http://www.w3.org/2000/svg" xmlns:xlink="http://www.w3.org/1999/xlink" x="0px" y="0px"
	 viewBox="0 0 478.165 478.165" style="enable-background:new 0 0 478.165 478.165;" xml:space="preserve">
<g fill="white">
	<path id="ShareThis_2_" d="M168.752,239.082c0,1.654-0.418,3.088-0.458,4.722l171.223,85.771
		c14.803-12.512,33.551-20.342,54.172-20.342c46.681,0,84.436,37.815,84.436,84.456c0.04,46.661-37.735,84.476-84.396,84.476
		c-46.681,0-84.237-37.815-84.237-84.476c0-1.534,0.219-3.208,0.458-4.742l-171.342-85.532
		c-14.704,12.253-33.511,20.123-54.172,20.123C37.815,323.498,0,285.743,0,239.082s37.815-84.476,84.336-84.476
		c20.76,0,39.449,7.87,54.152,20.242L309.93,89.198c-0.259-1.654-0.697-3.228-0.697-4.861C309.492,37.795,347.048,0,393.729,0
		c46.661,0,84.436,37.795,84.436,84.316c0,46.641-37.775,84.476-84.436,84.476c-20.681,0-39.369-7.89-54.152-20.282l-171.243,85.691
		C168.354,235.835,168.752,237.409,168.752,239.082z"/>
</g>
<g>
</g>
<g>
</g>
<g>
</g>
<g>
</g>
<g>
</g>
<g>
</g>
<g>
</g>
<g>
</g>
<g>
</g>
<g>
</g>
<g>
</g>
<g>
</g>
<g>
</g>
<g>
</g>
<g>
</g>
</svg>
