<svg width="23" height="23" viewBox="0 0 23 23" fill="none" xmlns="http://www.w3.org/2000/svg">
<circle cx="11.5" cy="11.5" r="11.5" fill="#06AE49"/>
<path d="M12.321 7.6665C11.7764 7.6665 11.254 7.88286 10.8689 8.26798C10.4838 8.6531 10.2674 9.17543 10.2674 9.72008C10.2674 10.2647 10.4838 10.7871 10.8689 11.1722C11.254 11.5573 11.7764 11.7736 12.321 11.7736C12.8657 11.7736 13.388 11.5573 13.7731 11.1722C14.1582 10.7871 14.3746 10.2647 14.3746 9.72008C14.3746 9.17543 14.1582 8.6531 13.7731 8.26798C13.388 7.88286 12.8657 7.6665 12.321 7.6665ZM12.321 8.64195C12.4626 8.64195 12.6028 8.66984 12.7336 8.72402C12.8644 8.7782 12.9832 8.85761 13.0834 8.95773C13.1835 9.05784 13.2629 9.17669 13.3171 9.3075C13.3712 9.4383 13.3991 9.57849 13.3991 9.72008C13.3991 9.86166 13.3712 10.0019 13.3171 10.1327C13.2629 10.2635 13.1835 10.3823 13.0834 10.4824C12.9832 10.5825 12.8644 10.662 12.7336 10.7161C12.6028 10.7703 12.4626 10.7982 12.321 10.7982C12.1794 10.7982 12.0392 10.7703 11.9084 10.7161C11.7776 10.662 11.6588 10.5825 11.5587 10.4824C11.4585 10.3823 11.3791 10.2635 11.325 10.1327C11.2708 10.0019 11.2429 9.86166 11.2429 9.72008C11.2429 9.43414 11.3565 9.15991 11.5587 8.95773C11.7608 8.75554 12.0351 8.64195 12.321 8.64195ZM12.321 12.287C10.9503 12.287 8.21387 12.9699 8.21387 14.3406V15.8808H16.4282V14.3406C16.4282 12.9699 13.6918 12.287 12.321 12.287ZM12.321 13.2625C13.8458 13.2625 15.4527 14.012 15.4527 14.3406V14.9053H9.18931V14.3406C9.18931 14.012 10.7808 13.2625 12.321 13.2625Z" fill="white"/>
<path d="M8.12266 9.30957L6.11528 11.9562L4.92848 10.7702L4.38086 11.3179L6.20598 13.1431L8.76184 9.85721L8.12266 9.30957Z" fill="white"/>
</svg>
