<svg width="11" height="9" viewBox="0 0 11 9" fill="none" xmlns="http://www.w3.org/2000/svg">
<path d="M1.13896 3.46154L4.48493 7.05829L2.87371 3.46154H1.13896ZM5.5 7.63702L7.37439 3.46154H3.62561L5.5 7.63702ZM2.88982 2.76923L3.98545 0.692308H2.57832L1.03154 2.76923H2.88982ZM6.51507 7.05829L9.86104 3.46154H8.12629L6.51507 7.05829ZM3.66858 2.76923H7.33142L6.23579 0.692308H4.76421L3.66858 2.76923ZM8.11018 2.76923H9.96846L8.42169 0.692308H7.01455L8.11018 2.76923ZM8.86746 0.140625L10.9298 2.90986C10.9799 2.97476 11.0032 3.04958 10.9996 3.13432C10.9961 3.21905 10.9656 3.29207 10.9083 3.35337L5.75243 8.89183C5.68798 8.96394 5.60383 9 5.5 9C5.39617 9 5.31202 8.96394 5.24757 8.89183L0.0916607 3.35337C0.0343728 3.29207 0.00393855 3.21905 0.00035805 3.13432C-0.00322245 3.04958 0.0200508 2.97476 0.0701777 2.90986L2.13254 0.140625C2.19699 0.046875 2.2883 0 2.40645 0H8.59355C8.71171 0 8.80301 0.046875 8.86746 0.140625Z" fill="#E74D3D"/>
</svg>
