<?xml version="1.0" encoding="utf-8"?>
<!-- Generator: Adobe Illustrator 24.3.0, SVG Export Plug-In . SVG Version: 6.00 Build 0)  -->
<svg version="1.1" id="Слой_1" xmlns="http://www.w3.org/2000/svg" xmlns:xlink="http://www.w3.org/1999/xlink" x="0px" y="0px"
	 viewBox="0 0 30 30" style="enable-background:new 0 0 30 30;" xml:space="preserve">
<style type="text/css">
	.st0{fill:#039BE5;}
	.st1{fill:#FFFFFF;}
</style>
<path class="st0" d="M2,0h26c1.1,0,2,0.9,2,2v26c0,1.1-0.9,2-2,2H2c-1.1,0-2-0.9-2-2V2C0,0.9,0.9,0,2,0z"/>
<path class="st1" d="M12.8,18.3l-0.3,4.4c0.4,0,0.6-0.2,0.9-0.4l2.1-2l4.3,3.2c0.8,0.4,1.4,0.2,1.6-0.7l2.8-13.3l0,0
	C24.4,8.2,23.8,7.7,23,8L6.3,14.4c-1.1,0.4-1.1,1.1-0.2,1.4l4.3,1.3l9.9-6.2c0.5-0.3,0.9-0.1,0.5,0.2L12.8,18.3z"/>
</svg>
