<svg width="18" height="17" viewBox="0 0 18 17" fill="none" xmlns="http://www.w3.org/2000/svg">
<path d="M9.25368 0C4.60709 0 0.835938 3.808 0.835938 8.5C0.835938 13.192 4.60709 17 9.25368 17C13.9003 17 17.6714 13.192 17.6714 8.5C17.6714 3.808 13.9003 0 9.25368 0ZM9.25368 2.55C10.651 2.55 11.779 3.689 11.779 5.1C11.779 6.511 10.651 7.65 9.25368 7.65C7.85633 7.65 6.72836 6.511 6.72836 5.1C6.72836 3.689 7.85633 2.55 9.25368 2.55ZM9.25368 14.62C8.25353 14.62 7.26893 14.3701 6.38767 13.8925C5.50641 13.415 4.75589 12.7246 4.20303 11.883C4.22829 10.1915 7.57013 9.265 9.25368 9.265C10.9288 9.265 14.2791 10.1915 14.3043 11.883C13.7515 12.7246 13.0009 13.415 12.1197 13.8925C11.2384 14.3701 10.2538 14.62 9.25368 14.62Z" fill="#178DE0"/>
</svg>
