<svg width="30" height="30" viewBox="0 0 30 30" fill="none" xmlns="http://www.w3.org/2000/svg">
<rect width="30" height="30" rx="2" fill="#7C529C"/>
<path d="M22.8285 7.94775C22.3324 7.49071 20.3246 6.03368 15.8481 6.01415C15.8481 6.01415 10.5707 5.69775 8.00041 8.05712C6.57072 9.48681 6.06681 11.5845 6.01212 14.1821C5.95744 16.7798 5.89103 21.647 10.5824 22.9673H10.5863L10.5824 24.9829C10.5824 24.9829 10.5512 25.7993 11.0902 25.9634C11.7387 26.1665 12.1215 25.5454 12.7426 24.8774C13.0824 24.5102 13.5512 23.9712 13.9067 23.561C17.1176 23.8306 19.5824 23.2134 19.8637 23.1235C20.5121 22.9126 24.1801 22.4438 24.7738 17.5767C25.391 12.5532 24.477 9.38134 22.8285 7.94775ZM23.3715 17.2095C22.8676 21.272 19.8949 21.5298 19.3481 21.7056C19.1137 21.7798 16.9457 22.3188 14.2231 22.1431C14.2231 22.1431 12.1918 24.5923 11.559 25.229C11.352 25.436 11.1254 25.4165 11.1293 25.0063C11.1293 24.7368 11.1449 21.6587 11.1449 21.6587C11.141 21.6587 11.141 21.6587 11.1449 21.6587C7.16837 20.5571 7.40275 16.4126 7.44572 14.2446C7.48869 12.0767 7.89884 10.2993 9.10978 9.104C11.2856 7.13134 15.766 7.42431 15.766 7.42431C19.5512 7.43993 21.3637 8.58056 21.7856 8.96337C23.1801 10.1587 23.891 13.0181 23.3715 17.2095ZM17.9418 14.0532C17.9574 14.3892 17.4535 14.4126 17.4379 14.0767C17.3949 13.2173 16.9926 12.7993 16.1645 12.7524C15.8285 12.7329 15.8598 12.229 16.1918 12.2485C17.2817 12.3071 17.8871 12.9321 17.9418 14.0532ZM18.7348 14.4946C18.7738 12.8384 17.7387 11.5415 15.7738 11.397C15.4418 11.3735 15.477 10.8696 15.809 10.8931C18.0746 11.0571 19.2817 12.6157 19.2387 14.5063C19.2348 14.8423 18.727 14.8267 18.7348 14.4946ZM20.5707 15.0181C20.5746 15.354 20.0668 15.3579 20.0668 15.022C20.0434 11.8384 17.9223 10.104 15.3481 10.0845C15.016 10.0806 15.016 9.58056 15.3481 9.58056C18.227 9.60009 20.5434 11.5884 20.5707 15.0181ZM20.1293 18.8501V18.8579C19.7074 19.6001 18.9184 20.4204 18.1059 20.1587L18.0981 20.147C17.2738 19.9165 15.3324 18.9165 14.1059 17.9399C13.4731 17.4399 12.8949 16.8501 12.4496 16.2837C12.0473 15.7798 11.641 15.1821 11.2465 14.4634C10.4145 12.9595 10.2309 12.2876 10.2309 12.2876C9.96916 11.4751 10.7856 10.686 11.5317 10.2642H11.5395C11.8988 10.0767 12.2426 10.1392 12.4731 10.4165C12.4731 10.4165 12.9574 10.9946 13.1645 11.2798C13.3598 11.5454 13.6215 11.9712 13.7582 12.2095C13.9965 12.6352 13.8481 13.0688 13.6137 13.2485L13.1449 13.6235C12.9067 13.8149 12.9379 14.1704 12.9379 14.1704C12.9379 14.1704 13.6332 16.7993 16.2309 17.4634C16.2309 17.4634 16.5863 17.4946 16.7777 17.2563L17.1527 16.7876C17.3324 16.5532 17.766 16.4048 18.1918 16.6431C18.766 16.9673 19.4965 17.4712 19.9809 17.9282C20.2543 18.1509 20.3168 18.4907 20.1293 18.8501Z" fill="white"/>
</svg>
