<svg width="19" height="13" viewBox="0 0 19 13" fill="none" xmlns="http://www.w3.org/2000/svg">
<path d="M16.9608 12.9359C17.098 12.9359 17.2338 12.909 17.3605 12.8565C17.4873 12.804 17.6024 12.7271 17.6994 12.6301C17.7964 12.5331 17.8733 12.4179 17.9258 12.2911C17.9782 12.1644 18.0052 12.0285 18.0051 11.8913V1.10869C18.0052 0.971511 17.9782 0.835664 17.9258 0.708911C17.8733 0.582157 17.7964 0.466984 17.6994 0.369976C17.6024 0.272968 17.4873 0.196027 17.3605 0.143551C17.2338 0.0910745 17.098 0.0640928 16.9608 0.064148H2.03966C1.90247 0.0640928 1.76662 0.091073 1.63986 0.143547C1.51311 0.19602 1.39794 0.272958 1.30093 0.369964C1.20393 0.466969 1.12699 0.58214 1.07452 0.708895C1.02204 0.835649 0.995062 0.971502 0.995117 1.10869V11.8913C0.995062 12.0285 1.02204 12.1644 1.07452 12.2911C1.12699 12.4179 1.20393 12.5331 1.30093 12.6301C1.39794 12.7271 1.51311 12.804 1.63986 12.8565C1.76662 12.909 1.90247 12.9359 2.03966 12.9359H16.9608ZM15.9162 10.8468H3.08378V2.15323H15.9162V10.8468Z" fill="#178DE0"/>
<path d="M12.6119 6.5605L7.58154 9.4648V3.65704L12.6119 6.5605Z" fill="#178DE0"/>
</svg>
