<svg width="15" height="11" viewBox="0 0 15 11" fill="none" xmlns="http://www.w3.org/2000/svg">
<path d="M14.9007 5.06472C13.2698 1.69555 10.8047 0 7.5 0C4.19361 0 1.73017 1.69555 0.0993382 5.06641C0.0339251 5.20225 0 5.35062 0 5.50084C0 5.65107 0.0339251 5.79943 0.0993382 5.93528C1.73017 9.30445 4.19533 11 7.5 11C10.8064 11 13.2698 9.30445 14.9007 5.93359C15.0331 5.66028 15.0331 5.3431 14.9007 5.06472ZM7.5 9.78528C4.72518 9.78528 2.69353 8.40521 1.26053 5.5C2.69353 2.59479 4.72518 1.21472 7.5 1.21472C10.2748 1.21472 12.3065 2.59479 13.7395 5.5C12.3082 8.40521 10.2765 9.78528 7.5 9.78528ZM7.43118 2.53067C5.75907 2.53067 4.40349 3.86012 4.40349 5.5C4.40349 7.13988 5.75907 8.46933 7.43118 8.46933C9.1033 8.46933 10.4589 7.13988 10.4589 5.5C10.4589 3.86012 9.1033 2.53067 7.43118 2.53067ZM7.43118 7.38957C6.36633 7.38957 5.50447 6.54432 5.50447 5.5C5.50447 4.45568 6.36633 3.61043 7.43118 3.61043C8.49604 3.61043 9.3579 4.45568 9.3579 5.5C9.3579 6.54432 8.49604 7.38957 7.43118 7.38957Z" fill="#178DE0"/>
</svg>
