<svg width="30" height="30" viewBox="0 0 30 30" fill="none" xmlns="http://www.w3.org/2000/svg">
<path d="M15.072 6.54167C12.8717 6.54388 10.7621 7.41882 9.20603 8.97453C7.65 10.5302 6.77463 12.6397 6.77199 14.84C6.77032 16.4067 7.21032 17.9333 8.04032 19.255L8.23699 19.5683L7.39865 22.63L10.5403 21.8067L10.842 21.9867C12.1212 22.7438 13.5805 23.1427 15.067 23.1417H15.0687C17.2683 23.1386 19.3769 22.2635 20.9325 20.7083C22.488 19.1531 23.3635 17.0446 23.367 14.845C23.3708 13.7547 23.1583 12.6745 22.7417 11.6669C22.3252 10.6593 21.7129 9.74434 20.9403 8.975C20.1717 8.20142 19.2573 7.58801 18.25 7.17032C17.2427 6.75263 16.1625 6.53895 15.072 6.54167ZM19.952 18.405C19.7437 18.9883 18.747 19.5183 18.2687 19.59C17.7443 19.6804 17.206 19.6467 16.697 19.4917C16.2141 19.3421 15.7395 19.1669 15.2753 18.9667C12.772 17.8867 11.1387 15.3683 11.012 15.2C10.8887 15.0333 9.99532 13.8467 9.99532 12.62C9.99532 11.3917 10.6387 10.7883 10.867 10.5383C10.9508 10.4436 11.0533 10.3672 11.168 10.3138C11.2827 10.2605 11.4072 10.2314 11.5337 10.2283C11.7003 10.2283 11.8653 10.23 12.012 10.2367C12.1653 10.2433 12.3703 10.1783 12.572 10.665C12.7803 11.165 13.2803 12.3917 13.342 12.5167C13.4037 12.64 13.4453 12.7867 13.3637 12.9533C13.2803 13.1217 13.2403 13.2233 13.1137 13.37C12.9903 13.5167 12.852 13.695 12.7403 13.8083C12.6153 13.9317 12.4853 14.0667 12.6303 14.3167C12.777 14.565 13.277 15.3833 14.017 16.045C14.9703 16.895 15.7753 17.1567 16.0237 17.2833C16.2737 17.4067 16.4187 17.3883 16.5653 17.22C16.7103 17.0517 17.1887 16.4917 17.3553 16.2433C17.522 15.9933 17.687 16.035 17.917 16.1167C18.1453 16.2017 19.372 16.8033 19.6203 16.9283C19.867 17.0517 20.0353 17.115 20.0987 17.22C20.1587 17.3233 20.1587 17.8217 19.952 18.405Z" fill="#2AB200"/>
<path d="M28.3333 0H1.66667C1.22464 0 0.800716 0.175595 0.488155 0.488155C0.175595 0.800716 0 1.22464 0 1.66667V28.3333C0 28.7754 0.175595 29.1993 0.488155 29.5118C0.800716 29.8244 1.22464 30 1.66667 30H28.3333C28.7754 30 29.1993 29.8244 29.5118 29.5118C29.8244 29.1993 30 28.7754 30 28.3333V1.66667C30 1.22464 29.8244 0.800716 29.5118 0.488155C29.1993 0.175595 28.7754 0 28.3333 0ZM15.0667 24.8267H15.0633C13.3968 24.8268 11.7567 24.4091 10.2933 23.6117L5 25L6.41667 19.8267C5.54164 18.3087 5.08144 16.5872 5.0823 14.8351C5.08316 13.083 5.54504 11.362 6.42156 9.84486C7.29808 8.32775 8.55837 7.068 10.0758 6.19213C11.5933 5.31626 13.3146 4.85511 15.0667 4.855C16.3792 4.85137 17.6794 5.10834 18.8919 5.61102C20.1044 6.11369 21.205 6.85207 22.13 7.78333C23.0593 8.70892 23.7957 9.80966 24.2966 11.0218C24.7975 12.234 25.0531 13.5334 25.0483 14.845C25.0444 17.4911 23.9915 20.0277 22.1204 21.8987C20.2493 23.7698 17.7128 24.8227 15.0667 24.8267Z" fill="#2AB200"/>
</svg>
