<svg width="15" height="12" viewBox="0 0 15 12" fill="none" xmlns="http://www.w3.org/2000/svg">
<path fill-rule="evenodd" clip-rule="evenodd" d="M13.3499 4.56021C10.0286 1.08244 4.64467 1.08244 1.32338 4.56021C1.17757 4.70768 0.982284 4.78928 0.779577 4.78743C0.57687 4.78559 0.382964 4.70045 0.239623 4.55035C0.0962816 4.40026 0.0149743 4.19722 0.0132128 3.98496C0.0114513 3.7727 0.0893766 3.56821 0.230205 3.41553C4.15452 -0.694499 10.5188 -0.694499 14.4431 3.41553C14.5839 3.56821 14.6618 3.7727 14.6601 3.98496C14.6583 4.19722 14.577 4.40026 14.4337 4.55035C14.2903 4.70045 14.0964 4.78559 13.8937 4.78743C13.691 4.78928 13.4957 4.70768 13.3499 4.56021ZM11.1635 6.84959C10.661 6.32332 10.0644 5.90586 9.40777 5.62104C8.75115 5.33622 8.04738 5.18963 7.33664 5.18963C6.62591 5.18963 5.92214 5.33622 5.26552 5.62104C4.6089 5.90586 4.01228 6.32332 3.50974 6.84959C3.36393 6.99705 3.16864 7.07865 2.96594 7.07681C2.76323 7.07496 2.56932 6.98982 2.42598 6.83973C2.28264 6.68963 2.20133 6.48659 2.19957 6.27433C2.19781 6.06207 2.27574 5.85758 2.41656 5.7049C3.06268 5.02834 3.82972 4.49166 4.67391 4.12551C5.5181 3.75935 6.4229 3.5709 7.33664 3.5709C8.25039 3.5709 9.15519 3.75935 9.99938 4.12551C10.8436 4.49166 11.6106 5.02834 12.2567 5.7049C12.3976 5.85758 12.4755 6.06207 12.4737 6.27433C12.472 6.48659 12.3906 6.68963 12.2473 6.83973C12.104 6.98982 11.9101 7.07496 11.7074 7.07681C11.5046 7.07865 11.3094 6.99705 11.1635 6.84959ZM8.97564 9.14058C8.5407 8.68529 7.95088 8.42952 7.33587 8.42952C6.72087 8.42952 6.13104 8.68529 5.6961 9.14058C5.55103 9.29248 5.35428 9.37782 5.14913 9.37782C4.94397 9.37782 4.74722 9.29248 4.60215 9.14058C4.45708 8.98868 4.37559 8.78266 4.37558 8.56783C4.37558 8.35301 4.45708 8.14699 4.60215 7.99509C4.96111 7.61911 5.38729 7.32086 5.85635 7.11738C6.32541 6.9139 6.82815 6.80917 7.33587 6.80917C7.84359 6.80917 8.34633 6.9139 8.81539 7.11738C9.28445 7.32086 9.71063 7.61911 10.0696 7.99509C10.2147 8.14699 10.2962 8.35301 10.2962 8.56783C10.2962 8.78266 10.2147 8.98868 10.0696 9.14058C9.92453 9.29248 9.72777 9.37782 9.52262 9.37782C9.31746 9.37782 9.12071 9.29248 8.97564 9.14058ZM6.56353 10.8568C6.56353 10.6421 6.64499 10.4362 6.78997 10.2844C6.93496 10.1326 7.1316 10.0473 7.33664 10.0473H7.34438C7.54942 10.0473 7.74606 10.1326 7.89105 10.2844C8.03603 10.4362 8.11749 10.6421 8.11749 10.8568C8.11749 11.0715 8.03603 11.2774 7.89105 11.4292C7.74606 11.5811 7.54942 11.6663 7.34438 11.6663H7.33664C7.1316 11.6663 6.93496 11.5811 6.78997 11.4292C6.64499 11.2774 6.56353 11.0715 6.56353 10.8568Z" fill="#11547E"/>
</svg>
