<svg width="22" height="22" viewBox="0 0 22 22" fill="none" xmlns="http://www.w3.org/2000/svg">
<path d="M6.60844 12.1818C5.52677 10.8484 5.88733 8.84837 7.69011 8.1817C9.49289 7.51502 10.5746 8.84837 10.9351 9.51505C11.2957 8.84837 12.7379 7.51502 14.5407 8.1817C16.3435 8.84837 16.3435 10.8484 15.2618 12.1818C14.1801 13.5151 10.9351 16.1818 10.9351 16.1818C10.9351 16.1818 7.69011 13.5151 6.60844 12.1818Z" stroke="white" stroke-linecap="round" stroke-linejoin="round"/>
<path d="M11 21C16.5228 21 21 16.5228 21 11C21 5.47715 16.5228 1 11 1C5.47715 1 1 5.47715 1 11C1 16.5228 5.47715 21 11 21Z" stroke="white" stroke-linecap="round" stroke-linejoin="round"/>
</svg>
