<svg width="41" height="41" viewBox="0 0 41 41" fill="none" xmlns="http://www.w3.org/2000/svg">
<path d="M24.3674 15.2402H18.4522V9.32496H15.4946V15.2402H9.57935V18.1978H15.4946V24.113H18.4522V18.1978H24.3674V15.2402Z" fill="white"/>
<path d="M29.4663 27.0706C31.906 24.1733 33.2427 20.5066 33.2402 16.719C33.2402 13.5017 32.2861 10.3567 30.4987 7.68161C28.7113 5.00655 26.1708 2.92159 23.1984 1.69039C20.226 0.459197 16.9553 0.13706 13.7999 0.764718C10.6444 1.39238 7.74594 2.94164 5.47099 5.21659C3.19603 7.49155 1.64677 10.39 1.01911 13.5455C0.391454 16.7009 0.713591 19.9716 1.94479 22.944C3.17598 25.9164 5.26094 28.4569 7.936 30.2443C10.6111 32.0317 13.7561 32.9858 16.9734 32.9858C20.761 32.9883 24.4277 31.6516 27.325 29.2119L38.5431 40.3798L40.6342 38.2887L29.4663 27.0706ZM16.9734 30.0282C14.341 30.0282 11.7678 29.2476 9.57916 27.7852C7.39047 26.3227 5.6846 24.2441 4.67725 21.8122C3.66991 19.3802 3.40635 16.7042 3.91988 14.1225C4.43342 11.5407 5.701 9.16926 7.56233 7.30793C9.42365 5.44661 11.7951 4.17903 14.3769 3.66549C16.9586 3.15195 19.6346 3.41552 22.0666 4.42286C24.4985 5.4302 26.5771 7.13607 28.0396 9.32476C29.502 11.5134 30.2826 14.0866 30.2826 16.719C30.2786 20.2476 28.8752 23.6306 26.3801 26.1257C23.8849 28.6208 20.502 30.0242 16.9734 30.0282Z" fill="white"/>
</svg>
